<?xml version="1.0" standalone="no"?>
<!DOCTYPE svg PUBLIC "-//W3C//DTD SVG 20010904//EN"
 "http://www.w3.org/TR/2001/REC-SVG-20010904/DTD/svg10.dtd">
<svg version="1.0" xmlns="http://www.w3.org/2000/svg"
 width="784.000000pt" height="784.000000pt" viewBox="0 0 784.000000 784.000000"
 preserveAspectRatio="xMidYMid meet">
<metadata>
Created by potrace 1.14, written by Peter Selinger 2001-2017
</metadata>
<g transform="translate(0.000000,784.000000) scale(0.100000,-0.100000)"
fill="#000000" stroke="none">
<path d="M2432 7465 c-72 -64 -136 -220 -125 -302 15 -111 124 -245 227 -277
85 -27 177 -17 324 35 193 67 181 65 256 41 53 -18 81 -21 143 -17 56 4 103 0
165 -13 l87 -19 17 35 c23 49 14 136 -21 200 -125 229 -422 295 -667 148 -64
-39 -136 -66 -174 -66 -70 0 -127 59 -144 150 -14 74 -30 120 -41 120 -5 0
-26 -16 -47 -35z"/>
<path d="M3165 6816 c-80 -25 -181 -110 -218 -182 -62 -124 -66 -243 -14 -420
24 -83 19 -93 -104 -199 -58 -50 -171 -139 -219 -172 -55 -37 -151 -125 -331
-303 -75 -74 -155 -152 -177 -174 l-40 -38 -326 223 c-179 123 -355 241 -392
261 -69 40 -81 40 -134 -4 -63 -52 -81 -137 -37 -174 58 -50 223 -165 521
-364 l198 -132 -40 -42 c-149 -156 -172 -195 -167 -286 2 -32 11 -70 20 -84
33 -50 115 -105 387 -259 l46 -27 -1 -182 c-1 -101 2 -202 6 -226 10 -66 41
-126 78 -154 83 -63 386 -158 789 -248 143 -32 134 -24 150 -126 7 -49 14 -96
15 -104 4 -29 36 -257 50 -355 8 -55 17 -122 21 -150 3 -27 8 -52 9 -53 10
-11 -22 -66 -53 -91 -58 -45 -148 -92 -164 -86 -10 4 -18 25 -22 55 -8 57 -65
176 -100 209 l-25 24 -18 -32 c-46 -83 -156 -245 -185 -272 -74 -69 -198 -141
-226 -132 -17 6 -34 40 -39 79 -3 18 -20 75 -38 126 -26 72 -35 89 -41 73 -49
-131 -114 -206 -230 -267 -67 -35 -184 -78 -252 -93 l-32 -7 26 69 c50 128 83
239 92 308 8 63 8 187 -1 225 -21 90 -64 190 -107 251 -38 53 -88 173 -104
249 -18 88 -15 187 8 319 9 51 16 95 14 96 -10 10 -226 -121 -288 -175 -127
-110 -212 -214 -272 -335 -30 -58 -72 -190 -83 -255 -4 -25 -9 -54 -11 -65 -7
-34 -6 -207 1 -270 14 -114 67 -312 133 -495 3 -8 4 -24 3 -35 -2 -19 -121
-262 -188 -385 -16 -30 -49 -91 -73 -135 -24 -44 -53 -98 -66 -120 -13 -22
-44 -81 -70 -132 l-47 -91 25 -44 c13 -24 124 -206 246 -406 122 -200 222
-368 222 -373 0 -5 4 -9 9 -9 5 0 8 -17 6 -38 -1 -20 -6 -83 -10 -140 l-7
-104 252 3 c138 2 253 6 256 11 4 7 -35 87 -56 113 -44 56 -454 929 -446 950
2 7 35 23 73 35 238 78 485 284 713 597 l45 61 225 56 c518 128 921 218 1070
241 25 4 52 8 60 10 33 5 108 15 160 20 30 3 71 8 90 10 19 2 78 7 130 10 52
4 111 8 131 10 l35 3 62 -121 c34 -67 98 -192 143 -277 177 -339 337 -666 394
-800 15 -36 33 -78 40 -95 50 -116 158 -429 185 -534 17 -69 28 -155 32 -258
1 -38 -32 -34 285 -38 111 -1 207 1 213 5 9 6 -6 37 -52 106 -133 202 -220
439 -479 1294 -27 91 -56 185 -63 210 -39 127 -90 301 -130 440 l-44 155 21
29 c28 39 108 120 141 141 16 11 35 15 53 11 15 -3 55 -9 87 -12 33 -3 67 -7
77 -9 9 -2 50 -6 91 -10 40 -3 80 -8 88 -10 8 -2 49 -7 90 -10 41 -4 78 -9 83
-12 20 -12 3 16 -20 33 -54 39 -566 385 -1058 715 -143 95 -261 177 -263 181
-2 5 -7 8 -12 8 -5 0 -51 28 -102 63 -307 209 -831 557 -838 557 -5 0 -10 3
-12 8 -1 4 -34 28 -73 53 -38 25 -128 84 -200 131 -284 185 -308 198 -393 204
-80 6 -180 38 -204 65 -77 89 215 505 368 526 66 8 115 -45 139 -152 26 -116
-10 -239 -97 -331 -23 -24 -26 -33 -16 -41 42 -33 4371 -2922 4793 -3199 457
-299 434 -287 465 -247 32 41 25 60 -40 104 -19 13 -39 27 -45 32 -5 4 -62 44
-125 87 -63 44 -122 84 -130 90 -29 21 -246 170 -430 295 -102 70 -266 182
-365 250 -99 68 -270 185 -380 260 -110 75 -247 169 -304 208 l-105 72 -54
160 c-29 88 -59 165 -65 171 -7 7 -50 23 -97 38 -47 14 -159 48 -250 75 -287
87 -340 104 -340 114 0 10 48 130 83 207 69 151 117 274 110 281 -4 4 -35 10
-68 14 -173 18 -276 37 -404 75 -305 91 -610 258 -891 489 l-75 62 -172 -5
-172 -4 -70 47 c-38 25 -97 68 -131 94 -60 47 -62 50 -57 85 6 46 65 178 223
498 68 138 124 258 124 267 0 9 -4 18 -9 22 -17 10 -247 344 -295 427 -15 27
-29 65 -31 87 l-4 39 142 4 c163 4 194 14 284 93 68 59 100 110 81 127 -7 7
-52 47 -98 88 -127 111 -200 183 -200 198 0 7 14 13 33 13 17 1 41 3 52 4 11
2 56 6 100 9 82 7 137 15 143 20 7 8 -31 83 -73 141 -83 116 -196 198 -318
231 -64 17 -178 17 -232 0z"/>
<path d="M5670 5713 c-266 -37 -533 -148 -784 -326 -326 -231 -690 -612 -850
-888 l-26 -46 22 -24 c76 -80 355 -267 510 -342 96 -47 288 -120 346 -132 9
-2 55 -13 102 -24 90 -22 187 -32 310 -35 83 -1 76 -7 120 96 30 71 26 95 -25
158 -47 57 -109 167 -127 223 -52 168 -40 270 30 264 34 -2 49 -30 71 -128 32
-149 73 -220 196 -339 186 -180 198 -194 227 -255 20 -44 30 -83 34 -136 3
-41 11 -84 19 -96 8 -11 36 -28 62 -37 99 -32 245 -27 188 7 -11 7 -43 35 -71
62 -55 56 -68 93 -78 240 -10 143 -72 303 -182 470 -62 96 -66 107 -66 216 1
113 15 163 95 324 75 151 98 173 207 193 52 10 79 14 195 27 28 4 57 8 65 10
8 2 39 7 69 10 30 4 64 11 77 15 18 7 194 219 194 234 0 14 -178 115 -280 159
-115 49 -160 63 -275 83 -83 14 -316 25 -375 17z"/>
<path d="M215 5250 c-3 -5 36 -54 86 -107 153 -162 219 -284 221 -408 4 -160
-44 -250 -231 -435 -186 -183 -234 -261 -272 -430 -56 -258 36 -530 224 -659
88 -60 231 -111 355 -128 63 -8 213 -8 252 0 14 3 37 6 51 6 22 1 28 7 33 34
3 17 6 34 6 37 1 43 80 268 117 333 2 4 -6 11 -19 16 -74 28 -166 79 -201 110
-72 64 -86 145 -43 238 21 44 59 106 76 123 3 3 15 20 28 38 147 209 184 303
185 462 1 149 -21 239 -82 332 -139 210 -367 357 -664 428 -93 22 -113 24
-122 10z"/>
<path d="M6457 5064 c-1 -1 -65 -5 -142 -8 -77 -3 -153 -8 -170 -11 -120 -20
-158 -30 -179 -46 -14 -11 -43 -64 -69 -126 -78 -188 -84 -251 -36 -347 17
-33 39 -72 49 -86 36 -52 111 -215 135 -293 25 -83 30 -111 41 -227 7 -76 28
-117 70 -142 44 -26 84 -12 109 37 17 34 19 60 19 180 0 77 -3 176 -6 220 l-6
80 76 154 76 153 6 112 5 111 115 22 c63 12 151 29 195 37 281 53 538 109 562
124 6 4 13 16 15 26 2 14 -5 21 -25 27 -24 6 -832 10 -840 3z m-285 -301 c56
-59 66 -160 22 -212 -14 -17 -32 -31 -40 -31 -26 0 -82 61 -98 107 -22 65 -20
97 10 132 33 40 71 41 106 4z"/>
<path d="M5580 2520 c0 -6 43 -96 95 -199 52 -103 95 -192 95 -198 0 -9 -120
-73 -136 -73 -19 0 -94 -45 -94 -57 0 -13 69 -110 136 -193 50 -61 106 -110
125 -110 25 0 84 77 164 215 73 125 108 219 97 257 -16 55 -74 103 -297 250
-194 127 -185 122 -185 108z"/>
<path d="M2855 2110 c-38 -9 -140 -36 -225 -59 -85 -23 -198 -54 -250 -67 -52
-14 -96 -27 -98 -29 -2 -2 -14 -41 -26 -87 -13 -45 -38 -119 -55 -164 -34 -87
-149 -320 -181 -365 -28 -38 -25 -50 18 -86 20 -18 51 -45 68 -60 34 -31 146
-130 180 -160 12 -10 49 -43 84 -73 35 -30 71 -62 80 -70 178 -156 370 -342
370 -359 0 -9 -12 -51 -26 -94 -14 -43 -23 -81 -19 -85 8 -9 431 -9 440 -1 3
4 -8 50 -25 103 -39 122 -89 189 -325 442 -16 17 -70 76 -120 130 -49 53 -99
107 -110 118 -60 61 -165 190 -165 203 0 7 30 42 67 76 229 212 306 322 396
567 54 147 53 140 20 139 -15 -1 -59 -9 -98 -19z"/>
</g>
</svg>
