<?xml version="1.0" encoding="UTF-8"?>
<!DOCTYPE svg PUBLIC "-//W3C//DTD SVG 1.1//EN" "http://www.w3.org/Graphics/SVG/1.1/DTD/svg11.dtd">
<svg xmlns="http://www.w3.org/2000/svg" version="1.1" width="980px" height="1533px" style="shape-rendering:geometricPrecision; text-rendering:geometricPrecision; image-rendering:optimizeQuality; fill-rule:evenodd; clip-rule:evenodd" xmlns:xlink="http://www.w3.org/1999/xlink">
<g><path style="opacity:0.937" fill="#eff8fe" d="M 125.5,20.5 C 139.325,26.4829 143.492,36.4829 138,50.5C 111.097,78.7379 82.9306,105.571 53.5,131C 49.6236,131.486 46.9569,129.819 45.5,126C 67.2178,91.2647 92.3845,59.0981 121,29.5C 122.527,26.4469 124.027,23.4469 125.5,20.5 Z"/></g>
<g><path style="opacity:0.89" fill="#eff8fe" d="M 673.5,21.5 C 678.08,21.878 681.913,23.878 685,27.5C 685.944,30.3471 685.444,32.8471 683.5,35C 679.54,36.0913 675.54,37.0913 671.5,38C 657.995,49.1686 643.662,59.1686 628.5,68C 620.518,76.3245 611.184,82.6579 600.5,87C 599.289,87.8928 599.289,88.7261 600.5,89.5C 628.193,79.3219 655.193,67.4886 681.5,54C 690.177,53.1659 698.844,52.3326 707.5,51.5C 707.5,53.5 707.5,55.5 707.5,57.5C 669.673,71.4994 632.006,85.9994 594.5,101C 589.341,103.412 584.341,106.079 579.5,109C 575.848,109.499 572.182,109.665 568.5,109.5C 568.177,105.774 568.511,102.107 569.5,98.5C 605.336,74.3197 640.002,48.653 673.5,21.5 Z"/></g>
<g><path style="opacity:0.892" fill="#eff8fe" d="M 883.5,27.5 C 889.34,27.9112 893.674,30.5778 896.5,35.5C 889.892,53.5014 882.225,71.0014 873.5,88C 868.476,88.6648 863.476,88.4982 858.5,87.5C 854.918,88.1937 851.418,89.1937 848,90.5C 845.252,89.8064 844.418,88.3064 845.5,86C 838.998,85.3176 832.665,83.9843 826.5,82C 825.941,81.2753 825.608,80.4419 825.5,79.5C 829.164,70.6658 835.164,63.8325 843.5,59C 846.002,56.0533 848.502,53.22 851,50.5C 857.053,53.7394 859.053,58.7394 857,65.5C 855.833,68 854,69.8333 851.5,71C 846.031,73.988 840.365,76.488 834.5,78.5C 834.667,78.8333 834.833,79.1667 835,79.5C 843.03,77.5814 851.196,77.0814 859.5,78C 860.914,79.5484 862.58,80.215 864.5,80C 871.028,65.4157 877.361,50.749 883.5,36C 882.975,35.3076 882.308,34.8076 881.5,34.5C 863.167,42.3333 844.833,50.1667 826.5,58C 827.188,62.4428 825.854,66.4428 822.5,70C 810.037,72.0364 804.704,66.8698 806.5,54.5C 831.983,44.5733 857.649,35.5733 883.5,27.5 Z"/></g>
<g><path style="opacity:0.924" fill="#eff8fe" d="M 439.5,29.5 C 444.703,29.5123 449.536,30.8456 454,33.5C 455.395,42.5345 454.229,51.2012 450.5,59.5C 451.167,59.8333 451.833,60.1667 452.5,60.5C 455.107,59.8631 457.44,58.6965 459.5,57C 469.667,55.8442 473.501,60.3442 471,70.5C 470.215,72.286 469.049,73.786 467.5,75C 458.577,79.4608 449.243,82.7941 439.5,85C 437.507,88.3107 436.341,91.8107 436,95.5C 441.012,92.2306 446.512,90.7306 452.5,91C 455.882,95.265 458.048,100.098 459,105.5C 460.472,95.7497 464.472,94.4164 471,101.5C 471.344,114.475 468.011,126.475 461,137.5C 455.756,145.414 449.756,152.748 443,159.5C 440.012,157.193 437.845,154.36 436.5,151C 437.889,147.555 439.556,144.222 441.5,141C 439.225,138.648 438.059,135.814 438,132.5C 434.518,134.077 431.852,133.077 430,129.5C 429.333,127.167 429.333,124.833 430,122.5C 433.349,119.318 436.516,115.985 439.5,112.5C 435.082,108.568 433.248,103.568 434,97.5C 430.167,106.5 426.333,115.5 422.5,124.5C 419.216,125.657 415.882,125.824 412.5,125C 410.552,123.561 409.219,121.728 408.5,119.5C 416.666,94.5032 426.5,70.1699 438,46.5C 437.619,41.1972 437.119,35.8639 436.5,30.5C 437.791,30.7373 438.791,30.404 439.5,29.5 Z M 455.5,108.5 C 456.586,108.62 457.253,109.287 457.5,110.5C 456.616,114.473 455.949,118.473 455.5,122.5C 453.712,122.785 452.045,122.452 450.5,121.5C 452.464,117.246 454.131,112.912 455.5,108.5 Z"/></g>
<g><path style="opacity:0.919" fill="#eff8fe" d="M 312.5,31.5 C 316.846,31.3343 321.179,31.501 325.5,32C 327.616,33.1707 328.282,34.6707 327.5,36.5C 315.752,39.9719 304.085,43.6386 292.5,47.5C 298.204,53.5732 302.371,60.5732 305,68.5C 305.153,73.3431 304.486,78.0098 303,82.5C 305.94,78.715 309.773,77.0483 314.5,77.5C 313.639,87.8688 308.806,95.8688 300,101.5C 298.927,107.484 297.927,113.484 297,119.5C 293.984,128.452 288.984,129.786 282,123.5C 281.92,117.801 282.42,112.134 283.5,106.5C 278.733,106.809 274.066,106.309 269.5,105C 266.466,103.809 264.799,101.642 264.5,98.5C 269.313,97.5068 273.98,96.0068 278.5,94C 281.492,92.6849 283.825,90.6849 285.5,88C 284.956,85.6003 284.289,83.267 283.5,81C 277.175,80.5005 270.842,80.3338 264.5,80.5C 264.081,77.6755 265.081,75.5088 267.5,74C 272.849,72.1641 278.182,70.3308 283.5,68.5C 282.629,63.1591 280.629,58.3257 277.5,54C 268.84,53.5002 260.173,53.3336 251.5,53.5C 252.164,48.3302 255.164,45.1635 260.5,44C 277.733,38.8586 295.066,34.6919 312.5,31.5 Z"/></g>
<g><path style="opacity:0.908" fill="#eff8fe" d="M 482.5,35.5 C 486.007,34.9935 489.174,35.6602 492,37.5C 495.4,43.8349 496.734,50.5015 496,57.5C 506.748,50.2091 517.581,43.0425 528.5,36C 531.817,35.5017 535.15,35.335 538.5,35.5C 538.664,38.1873 538.497,40.854 538,43.5C 524.98,57.8678 514.313,73.8678 506,91.5C 504.748,95.6777 503.582,99.8443 502.5,104C 511.793,99.2272 521.626,95.3938 532,92.5C 536.418,93.7092 540.418,95.7092 544,98.5C 545.844,109.667 543.51,120 537,129.5C 529.545,140.221 520.212,148.888 509,155.5C 506.993,154.331 504.827,153.665 502.5,153.5C 502.667,164.838 502.5,176.172 502,187.5C 501.713,189.891 501.213,192.224 500.5,194.5C 504.632,201.886 502.632,204.719 494.5,203C 492.876,201.883 491.876,200.383 491.5,198.5C 492.167,196.167 492.833,193.833 493.5,191.5C 492.527,189.608 491.86,187.608 491.5,185.5C 493.332,171.548 493.832,157.548 493,143.5C 490.618,140.781 487.951,138.447 485,136.5C 479.987,138.508 475.653,141.508 472,145.5C 471.517,146.448 471.351,147.448 471.5,148.5C 464.402,147.542 461.902,143.542 464,136.5C 475.833,116.667 487.667,96.8333 499.5,77C 497.241,74.5366 494.574,73.2032 491.5,73C 484.088,77.741 477.255,83.241 471,89.5C 468.93,86.8189 468.264,83.8189 469,80.5C 476.445,66.3348 480.945,51.3348 482.5,35.5 Z M 516.5,59.5 C 514.3,63.88 511.467,67.88 508,71.5C 506.559,70.7402 505.059,70.0736 503.5,69.5C 502.269,68.3493 502.269,67.1827 503.5,66C 508.408,64.8794 512.741,62.7128 516.5,59.5 Z M 524.5,104.5 C 526.833,104.5 529.167,104.5 531.5,104.5C 530.925,121.313 524.259,134.98 511.5,145.5C 507.736,145.04 505.236,143.04 504,139.5C 500.188,127.913 502.688,118.08 511.5,110C 515.893,108.044 520.226,106.211 524.5,104.5 Z M 492.5,113.5 C 493.573,114.251 493.74,115.251 493,116.5C 491.069,120.04 488.902,123.374 486.5,126.5C 485.488,120.853 487.488,116.519 492.5,113.5 Z M 492.5,128.5 C 493.613,129.946 493.78,131.613 493,133.5C 492.167,132.667 491.333,131.833 490.5,131C 491.381,130.292 492.047,129.458 492.5,128.5 Z"/></g>
<g><path style="opacity:0.93" fill="#eff8fe" d="M 177.5,60.5 C 187.016,59.4234 193.682,63.2567 197.5,72C 182.133,107.567 165.3,142.4 147,176.5C 146.5,177 146,177.5 145.5,178C 135.987,179.512 126.987,178.012 118.5,173.5C 112.87,176.315 107.203,179.149 101.5,182C 100.5,182.667 99.5,182.667 98.5,182C 94.3333,177.833 90.1667,173.667 86,169.5C 86.4679,160.118 88.3012,150.951 91.5,142C 89.3577,139.532 86.8577,137.365 84,135.5C 82.6674,130.166 84.6674,126.833 90,125.5C 98.887,126.068 104.387,130.568 106.5,139C 105.578,144.433 104.245,149.767 102.5,155C 110.733,160.472 119.733,164.305 129.5,166.5C 132.711,153.072 137.878,140.405 145,128.5C 155.21,111.242 166.043,94.4085 177.5,78C 170.536,78.2048 163.87,79.8714 157.5,83C 140.34,92.0794 123.34,101.413 106.5,111C 98.842,114.559 90.842,116.225 82.5,116C 81.4829,114.951 81.3162,113.784 82,112.5C 111.569,91.1189 143.402,73.7856 177.5,60.5 Z"/></g>
<g><path style="opacity:0.849" fill="#eff8fe" d="M 789.5,65.5 C 791.017,65.5106 792.184,66.1772 793,67.5C 796.881,72.7626 800.381,78.2626 803.5,84C 802.19,86.9935 799.857,88.4935 796.5,88.5C 793.889,88.4441 791.722,87.4441 790,85.5C 785.962,78.6958 785.795,72.0291 789.5,65.5 Z"/></g>
<g><path style="opacity:0.925" fill="#eff8fe" d="M 677.5,85.5 C 683.176,85.3339 688.843,85.5006 694.5,86C 696.976,87.3088 698.976,89.1421 700.5,91.5C 689.702,98.4035 678.702,105.07 667.5,111.5C 666.167,121.833 666.167,132.167 667.5,142.5C 671.692,141.269 675.859,139.936 680,138.5C 684.482,140.594 688.815,140.594 693,138.5C 696.384,139.072 699.551,140.239 702.5,142C 703.591,144.064 703.758,146.231 703,148.5C 694.291,162.085 685.458,175.585 676.5,189C 688.289,189.843 699.956,191.51 711.5,194C 717.118,194.93 719.618,198.096 719,203.5C 717.681,205.487 715.848,206.654 713.5,207C 701.224,208.584 688.891,208.917 676.5,208C 672.502,206.663 669.168,204.33 666.5,201C 665.552,200.517 664.552,200.351 663.5,200.5C 663.334,196.486 663.501,192.486 664,188.5C 668.256,184.333 671.256,179.333 673,173.5C 676.429,165.116 678.596,156.449 679.5,147.5C 673.86,147.571 669.36,149.904 666,154.5C 663.907,159.628 662.574,164.962 662,170.5C 661,171.167 660,171.833 659,172.5C 657.272,180.491 652.939,182.491 646,178.5C 641.917,172.834 638.75,166.668 636.5,160C 640.365,157.8 643.198,154.633 645,150.5C 652.088,130.065 656.754,109.065 659,87.5C 661.042,86.7146 663.042,87.048 665,88.5C 665.964,92.7963 666.797,97.1296 667.5,101.5C 670.896,97.721 674.063,93.721 677,89.5C 677.49,88.2068 677.657,86.8734 677.5,85.5 Z"/></g>
<g><path style="opacity:0.913" fill="#eff8fe" d="M 821.5,87.5 C 826.132,88.383 830.798,89.0496 835.5,89.5C 834.672,94.1518 832.505,98.1518 829,101.5C 828.51,102.793 828.343,104.127 828.5,105.5C 832.734,105.062 834.401,106.728 833.5,110.5C 826.5,116.333 819.5,122.167 812.5,128C 820.159,128.5 827.826,128.666 835.5,128.5C 835.662,130.527 835.495,132.527 835,134.5C 830.984,138.348 827.151,142.348 823.5,146.5C 825.289,147.877 827.289,148.877 829.5,149.5C 846.416,127.708 868.25,114.041 895,108.5C 896.039,110.746 897.206,112.913 898.5,115C 891.816,124.21 887.149,134.377 884.5,145.5C 885.701,148.872 887.534,151.872 890,154.5C 894.3,157.798 898.3,161.465 902,165.5C 902.667,167.167 902.667,168.833 902,170.5C 893.933,180.07 883.766,186.07 871.5,188.5C 873.98,191.361 874.98,194.694 874.5,198.5C 865.056,198.827 855.722,197.993 846.5,196C 842.542,193.894 841.542,190.727 843.5,186.5C 851.402,181.029 860.069,177.196 869.5,175C 875.089,172.401 880.423,169.401 885.5,166C 879.972,161.101 875.806,155.267 873,148.5C 874.015,139.776 875.349,131.109 877,122.5C 856.913,136.587 840.246,153.92 827,174.5C 820.293,187.196 812.793,199.363 804.5,211C 798.403,212.544 794.57,210.377 793,204.5C 794.126,196.791 795.46,189.124 797,181.5C 796.586,181.043 796.086,180.709 795.5,180.5C 790.323,181.901 785.156,183.234 780,184.5C 778.647,183.315 777.48,181.981 776.5,180.5C 782.808,169.682 790.808,160.182 800.5,152C 805.983,147.094 811.649,142.428 817.5,138C 814.641,137.447 811.808,137.614 809,138.5C 803.426,138.094 800.259,135.094 799.5,129.5C 791.626,133.888 783.292,135.221 774.5,133.5C 785.297,127.265 795.964,120.765 806.5,114C 808.333,112.167 810.167,110.333 812,108.5C 813.187,106.956 813.52,105.289 813,103.5C 805.588,108.039 797.922,112.039 790,115.5C 786.771,114.901 783.604,114.068 780.5,113C 777.184,111.749 776.85,110.082 779.5,108C 794.789,103.521 808.789,96.6877 821.5,87.5 Z M 798.5,168.5 C 800.461,166.037 802.628,163.703 805,161.5C 804.142,164.865 801.975,167.198 798.5,168.5 Z"/></g>
<g><path style="opacity:0.822" fill="#eff8fe" d="M 640.5,103.5 C 642.5,103.5 644.5,103.5 646.5,103.5C 646.703,105.39 646.037,106.89 644.5,108C 637.346,113.747 629.679,118.747 621.5,123C 615.276,126.755 609.61,126.255 604.5,121.5C 604.977,120.522 605.643,119.689 606.5,119C 615.541,114.875 624.874,111.542 634.5,109C 636.396,106.932 638.396,105.099 640.5,103.5 Z"/></g>
<g><path style="opacity:0.905" fill="#eff8fe" d="M 255.5,105.5 C 260.542,105.015 264.376,107.015 267,111.5C 268.911,125.421 266.078,138.254 258.5,150C 256.19,150.497 253.857,150.663 251.5,150.5C 252.233,136.166 253.067,121.833 254,107.5C 254.717,106.956 255.217,106.289 255.5,105.5 Z"/></g>
<g><path style="opacity:0.914" fill="#eff8fe" d="M 341.5,107.5 C 343.199,107.34 344.866,107.506 346.5,108C 349.98,110.799 352.647,114.133 354.5,118C 353.035,130.316 351.702,142.649 350.5,155C 353.727,164.523 351.727,172.856 344.5,180C 337.48,183.999 331.147,183.333 325.5,178C 327.333,177.5 328.5,176.333 329,174.5C 333.675,156.402 335.842,138.069 335.5,119.5C 319.124,135.024 300.124,146.19 278.5,153C 273.194,154.067 267.861,154.901 262.5,155.5C 262.343,154.127 262.51,152.793 263,151.5C 288.404,135.384 314.57,120.717 341.5,107.5 Z"/></g>
<g><path style="opacity:0.92" fill="#eff8fe" d="M 421.5,143.5 C 425.273,142.822 428.106,144.156 430,147.5C 430.168,158.182 430.668,168.849 431.5,179.5C 432.672,179.081 433.672,178.415 434.5,177.5C 435.407,174.943 436.407,172.443 437.5,170C 440.146,169.503 442.813,169.336 445.5,169.5C 446.26,183.481 440.593,193.981 428.5,201C 424.316,202.165 421.483,200.665 420,196.5C 419.653,178.811 420.153,161.144 421.5,143.5 Z"/></g>
<g><path style="opacity:0.931" fill="#eff8fe" d="M 303.5,160.5 C 303.5,159.833 303.167,159.5 302.5,159.5C 308.34,151.881 315.673,150.381 324.5,155C 329.619,159.507 329.619,164.174 324.5,169C 320.5,169.667 316.5,169.667 312.5,169C 309.631,165.962 306.631,163.129 303.5,160.5 Z"/></g>
<g><path style="opacity:0.911" fill="#eff8fe" d="M 46.5,154.5 C 49.8078,153.974 51.9745,155.307 53,158.5C 59.5272,170.221 65.5272,182.221 71,194.5C 72.2504,197.077 72.5837,199.743 72,202.5C 69.1009,208.574 64.6009,210.074 58.5,207C 51.8949,199.868 48.3949,191.368 48,181.5C 47.8495,173.586 47.0161,165.752 45.5,158C 45.6483,156.744 45.9816,155.577 46.5,154.5 Z"/></g>
<g><path style="opacity:0.912" fill="#eff8fe" d="M 456.5,154.5 C 459.614,155.091 462.114,156.758 464,159.5C 464.667,167.5 464.667,175.5 464,183.5C 459.181,187.919 455.181,187.252 452,181.5C 451.333,174.167 451.333,166.833 452,159.5C 453.707,157.963 455.207,156.296 456.5,154.5 Z"/></g>
<g><path style="opacity:0.877" fill="#eff8fe" d="M 302.5,159.5 C 303.167,159.5 303.5,159.833 303.5,160.5C 308.243,169.801 305.576,173.634 295.5,172C 292.57,171.394 289.737,170.56 287,169.5C 286.833,169.833 286.667,170.167 286.5,170.5C 287.689,171.429 289.022,171.762 290.5,171.5C 289.564,174.959 287.564,177.793 284.5,180C 278.627,180.951 272.96,180.285 267.5,178C 266.101,176.938 265.101,175.605 264.5,174C 268.036,167.022 273.703,164.522 281.5,166.5C 281.22,163.728 281.887,161.228 283.5,159C 289.915,158.21 296.248,158.376 302.5,159.5 Z"/></g>
<g><path style="opacity:0.883" fill="#eff8fe" d="M 240.5,188.5 C 247.108,189.285 249.608,192.952 248,199.5C 246.833,200.667 245.667,201.833 244.5,203C 239.442,203.661 234.442,203.328 229.5,202C 228.483,200.951 228.316,199.784 229,198.5C 233.026,195.302 236.859,191.968 240.5,188.5 Z"/></g>
<g><path style="opacity:0.927" fill="#eff8fe" d="M 853.5,455.5 C 857.514,455.334 861.514,455.501 865.5,456C 867.498,457.414 868.498,459.414 868.5,462C 867.288,482.202 865.955,502.369 864.5,522.5C 865.551,525.757 866.218,529.09 866.5,532.5C 872.856,531.161 879.189,529.661 885.5,528C 903.532,527.864 909.365,536.364 903,553.5C 893.032,568.968 880.198,581.634 864.5,591.5C 864.371,598.005 865.705,604.339 868.5,610.5C 874.491,605.836 880.824,601.67 887.5,598C 898.167,593.333 908.833,593.333 919.5,598C 922.612,600.439 924.945,603.439 926.5,607C 923.829,613.178 919.496,617.844 913.5,621C 904.626,626.293 895.293,630.626 885.5,634C 879.167,634.667 872.833,634.667 866.5,634C 864.833,632.833 863.167,631.667 861.5,630.5C 858.457,632.713 855.29,634.713 852,636.5C 848.656,635.185 846.99,632.852 847,629.5C 850.833,625.667 854.667,621.833 858.5,618C 849.116,599.342 845.616,579.508 848,558.5C 837.079,566.044 826.246,573.71 815.5,581.5C 821.93,590.556 824.597,600.556 823.5,611.5C 803.307,623.098 782.64,633.931 761.5,644C 758.911,645.314 756.244,645.981 753.5,646C 751.595,644.185 749.928,642.185 748.5,640C 749.167,639.333 749.833,638.667 750.5,638C 748.082,634.042 747.915,629.875 750,625.5C 761.444,610.79 774.777,598.124 790,587.5C 790.219,581.3 789.719,575.133 788.5,569C 789.399,563.708 790.732,558.541 792.5,553.5C 783.908,552.799 780.575,548.299 782.5,540C 791.167,539.333 799.833,539.333 808.5,540C 810.167,541.823 811.167,543.99 811.5,546.5C 809.132,555.256 807.465,563.922 806.5,572.5C 819.361,561.153 833.194,551.153 848,542.5C 849.129,536.042 849.963,529.542 850.5,523C 849.347,509.312 848.013,495.645 846.5,482C 847.397,475.45 848.564,468.95 850,462.5C 850.653,459.861 851.82,457.527 853.5,455.5 Z M 885.5,540.5 C 888.5,540.5 891.5,540.5 894.5,540.5C 894.063,545.708 892.23,550.375 889,554.5C 882.35,562.317 875.183,569.65 867.5,576.5C 866.338,572.678 865.338,568.845 864.5,565C 865.607,559.197 866.774,553.363 868,547.5C 873.295,543.564 879.128,541.231 885.5,540.5 Z M 802.5,591.5 C 809.327,597.476 808.994,603.309 801.5,609C 792.203,616.152 781.87,620.819 770.5,623C 781.672,612.994 792.339,602.494 802.5,591.5 Z M 898.5,608.5 C 901.022,610.172 903.688,611.672 906.5,613C 896.839,618.499 886.505,620.999 875.5,620.5C 877.431,618.196 879.764,616.362 882.5,615C 887.893,612.709 893.226,610.543 898.5,608.5 Z"/></g>
<g><path style="opacity:0.909" fill="#eff8fe" d="M 144.5,467.5 C 149.875,467.172 155.208,467.505 160.5,468.5C 161.771,470.829 163.771,471.995 166.5,472C 168.4,475.204 171.233,477.038 175,477.5C 175.667,479.833 175.667,482.167 175,484.5C 168.088,490.712 160.254,495.545 151.5,499C 136.068,505.589 120.401,511.589 104.5,517C 97.5939,532.04 91.2606,547.373 85.5,563C 85.8333,563.5 86.1667,564 86.5,564.5C 96.3368,561.582 105.337,557.082 113.5,551C 116.273,548.617 118.439,545.783 120,542.5C 120.841,535.391 122.174,528.391 124,521.5C 137.248,520.005 146.748,525.505 152.5,538C 148.012,541.743 143.346,545.243 138.5,548.5C 137.832,556.171 138.165,563.838 139.5,571.5C 146.771,570.009 154.104,569.509 161.5,570C 162.899,571.062 163.899,572.395 164.5,574C 160.802,577.359 156.802,580.359 152.5,583C 148.207,584.202 144.707,583.035 142,579.5C 141.333,584.833 141.333,590.167 142,595.5C 143.491,602.122 144.658,608.789 145.5,615.5C 143.173,615.665 141.007,616.331 139,617.5C 122.072,613.196 106.405,606.196 92,596.5C 92.422,591.712 94.922,588.212 99.5,586C 106.47,582.399 113.803,579.899 121.5,578.5C 121.666,571.825 121.5,565.158 121,558.5C 108.262,566.12 94.7621,571.953 80.5,576C 77.7728,576.818 75.1062,576.652 72.5,575.5C 71.0692,572.374 69.7358,569.207 68.5,566C 74.5667,551.202 80.9001,536.535 87.5,522C 73.5377,524.049 59.5377,526.215 45.5,528.5C 45.5,526.5 45.5,524.5 45.5,522.5C 66.4606,519.016 85.7939,511.516 103.5,500C 114.761,485.881 128.427,475.048 144.5,467.5 Z M 144.5,477.5 C 150.637,476.632 155.637,478.632 159.5,483.5C 155.824,487.009 151.491,489.509 146.5,491C 137.58,494.311 128.58,496.977 119.5,499C 126.231,489.754 134.564,482.588 144.5,477.5 Z M 120.5,585.5 C 121.117,585.611 121.617,585.944 122,586.5C 123.735,591.871 125.568,597.204 127.5,602.5C 127,602.833 126.5,603.167 126,603.5C 119.221,601.844 112.387,600.511 105.5,599.5C 105.22,596.728 105.887,594.228 107.5,592C 111.925,589.787 116.259,587.621 120.5,585.5 Z"/></g>
<g><path style="opacity:0.925" fill="#eff8fe" d="M 694.5,467.5 C 696.857,467.337 699.19,467.503 701.5,468C 703.575,471.058 704.908,474.392 705.5,478C 700.064,512.408 690.731,545.741 677.5,578C 677.833,578.5 678.167,579 678.5,579.5C 685.343,576.163 691.176,571.497 696,565.5C 699.667,560.167 703.333,554.833 707,549.5C 708.333,550.833 709.667,552.167 711,553.5C 711.667,558.5 711.667,563.5 711,568.5C 701.417,581.418 689.917,592.252 676.5,601C 671.474,602.494 667.308,601.327 664,597.5C 663.453,576.234 667.286,555.734 675.5,536C 674.464,532.879 674.297,529.713 675,526.5C 681.213,506.695 687.713,487.028 694.5,467.5 Z"/></g>
<g><path style="opacity:0.922" fill="#eff8fe" d="M 612.5,469.5 C 624.386,474.54 631.552,483.54 634,496.5C 634.377,500.019 634.877,503.519 635.5,507C 633.655,522.457 632.322,537.957 631.5,553.5C 634.243,553.077 635.576,554.244 635.5,557C 625.628,574.322 622.628,592.822 626.5,612.5C 625.167,612.5 623.833,612.5 622.5,612.5C 621.833,618.833 621.167,625.167 620.5,631.5C 616.727,632.178 613.894,630.844 612,627.5C 609.39,619.612 607.223,611.612 605.5,603.5C 603.179,606.13 601.346,609.13 600,612.5C 597.733,622.536 593.233,631.369 586.5,639C 583.037,640.035 580.204,639.202 578,636.5C 575.2,629.267 572.7,621.934 570.5,614.5C 576.139,610.931 577.472,606.264 574.5,600.5C 575.189,598.556 575.689,596.556 576,594.5C 576.333,585.833 576.667,577.167 577,568.5C 581.43,562.857 584.764,563.524 587,570.5C 588.408,574.057 589.408,577.724 590,581.5C 590.333,588.833 590.667,596.167 591,603.5C 601.14,594.362 608.473,583.362 613,570.5C 615.399,558.154 617.732,545.821 620,533.5C 621.289,521.522 621.622,509.522 621,497.5C 615.417,490.839 611.251,483.339 608.5,475C 609.65,473.019 610.984,471.186 612.5,469.5 Z"/></g>
<g><path style="opacity:0.917" fill="#eff8fe" d="M 268.5,470.5 C 272.555,470.176 276.555,470.509 280.5,471.5C 281.239,475.473 281.905,479.473 282.5,483.5C 278.598,487.132 274.264,490.298 269.5,493C 266.078,495.719 263.578,498.886 262,502.5C 264.609,499.497 267.775,497.997 271.5,498C 273.293,500.795 275.46,503.295 278,505.5C 278.667,508.5 278.667,511.5 278,514.5C 271.422,521.989 267.256,530.656 265.5,540.5C 269.804,540.132 272.804,541.799 274.5,545.5C 271.78,556.436 269.446,567.436 267.5,578.5C 272.293,579.229 276.626,581.063 280.5,584C 285.316,587.981 289.982,592.148 294.5,596.5C 298.258,577.98 305.091,560.647 315,544.5C 322.5,532.167 330,519.833 337.5,507.5C 342.02,505.42 345.02,506.753 346.5,511.5C 338.596,528.376 330.596,545.21 322.5,562C 324.345,564.528 325.512,567.361 326,570.5C 328.492,584.068 329.492,597.735 329,611.5C 328.042,616.545 326.209,621.212 323.5,625.5C 321.929,626.309 320.262,626.643 318.5,626.5C 319.737,606.851 320.237,587.185 320,567.5C 317.212,571.412 315.212,575.746 314,580.5C 312.411,586.443 311.078,592.443 310,598.5C 308.301,599.406 306.467,599.739 304.5,599.5C 307.239,611.32 311.405,622.653 317,633.5C 317.514,637.265 316.014,638.265 312.5,636.5C 307.933,629.037 304.767,621.037 303,612.5C 302.223,619.725 300.557,626.725 298,633.5C 293.47,639.171 287.637,641.004 280.5,639C 277.806,636.347 276.973,633.18 278,629.5C 283.167,625.667 288.333,621.833 293.5,618C 294.554,616.612 294.72,615.112 294,613.5C 289.467,604.25 282.967,596.75 274.5,591C 269.851,589.656 265.351,588.156 261,586.5C 258.04,580.87 256.54,574.87 256.5,568.5C 255.178,568.33 254.011,568.663 253,569.5C 250.131,575.407 246.631,580.907 242.5,586C 250.501,592.468 254.168,600.968 253.5,611.5C 255.833,611.5 258.167,611.5 260.5,611.5C 260.5,605.167 260.5,598.833 260.5,592.5C 262.792,592.244 264.959,592.577 267,593.5C 268.354,597.363 268.854,601.363 268.5,605.5C 272.98,605.559 275.647,607.726 276.5,612C 274.593,618.794 272.927,625.627 271.5,632.5C 265.546,633.312 262.546,630.645 262.5,624.5C 258.219,623.483 255.886,625.15 255.5,629.5C 256.888,631.109 257.888,632.942 258.5,635C 256.672,638.989 254.339,642.655 251.5,646C 244.991,647.759 239.491,646.259 235,641.5C 231.493,647.797 227.16,648.13 222,642.5C 222.282,635.797 223.116,629.13 224.5,622.5C 220.988,621.995 218.655,619.995 217.5,616.5C 227.624,588.6 238.791,561.267 251,534.5C 242.167,543.333 233.333,552.167 224.5,561C 217.428,561.863 213.261,558.696 212,551.5C 211.333,549.167 211.333,546.833 212,544.5C 214.833,541.667 217.667,538.833 220.5,536C 223.073,535.572 225.406,535.906 227.5,537C 233.353,530.648 239.02,524.148 244.5,517.5C 242.503,513.694 241.67,509.694 242,505.5C 244.5,502.333 247,499.167 249.5,496C 248.5,495.333 247.5,495.333 246.5,496C 229.005,505.476 218.172,519.976 214,539.5C 213.218,542.188 211.718,543.188 209.5,542.5C 207.892,539.618 206.559,536.618 205.5,533.5C 208.614,519.654 213.78,506.654 221,494.5C 222.833,492.667 224.667,490.833 226.5,489C 240.148,481.954 254.148,475.787 268.5,470.5 Z M 240.5,592.5 C 241.697,600.658 242.197,608.992 242,617.5C 241.06,622.048 239.06,626.048 236,629.5C 234.013,621.255 233.013,612.922 233,604.5C 235.772,600.612 238.272,596.612 240.5,592.5 Z"/></g>
<g><path style="opacity:0.861" fill="#eff8fe" d="M 363.5,474.5 C 366.044,474.104 368.211,474.771 370,476.5C 370.953,478.455 372.287,480.122 374,481.5C 373.864,514.878 372.697,548.211 370.5,581.5C 368.833,581.5 367.167,581.5 365.5,581.5C 365.481,550.561 365.981,519.561 367,488.5C 361.467,493.698 356.3,499.198 351.5,505C 350.833,505.667 350.167,505.667 349.5,505C 348.044,503.255 346.711,501.422 345.5,499.5C 348.828,489.153 354.828,480.819 363.5,474.5 Z"/></g>
<g><path style="opacity:0.905" fill="#eff8fe" d="M 524.5,476.5 C 529.535,475.502 533.702,476.835 537,480.5C 537.667,481.5 537.667,482.5 537,483.5C 529.044,490.9 519.878,496.4 509.5,500C 490.002,506.876 470.002,511.209 449.5,513C 446.603,511.285 445.269,508.785 445.5,505.5C 455.477,504.344 465.144,501.844 474.5,498C 491.605,491.608 508.272,484.441 524.5,476.5 Z"/></g>
<g><path style="opacity:0.931" fill="#eff8fe" d="M 812.5,491.5 C 816.846,491.334 821.179,491.501 825.5,492C 829.32,495.955 829.487,500.122 826,504.5C 812.164,515.978 796.998,525.478 780.5,533C 775.5,533.667 770.5,533.667 765.5,533C 762.588,531.142 761.088,528.642 761,525.5C 777.801,513.518 794.967,502.185 812.5,491.5 Z"/></g>
<g><path style="opacity:0.923" fill="#eff8fe" d="M 507.5,510.5 C 512.941,510.969 517.775,512.969 522,516.5C 522.667,520.167 522.667,523.833 522,527.5C 520.682,530.43 520.015,533.43 520,536.5C 527.127,530.458 535.294,528.292 544.5,530C 545.833,531.333 547.167,532.667 548.5,534C 538.378,560.243 526.378,585.576 512.5,610C 505.941,609.725 500.274,607.225 495.5,602.5C 490.251,604.146 484.917,605.479 479.5,606.5C 475.429,606.264 472.596,604.264 471,600.5C 469.786,595.886 468.786,591.22 468,586.5C 455.285,596.883 442.285,606.883 429,616.5C 427.289,620.668 427.456,624.834 429.5,629C 425.165,635.469 420.332,635.969 415,630.5C 409.247,619.371 408.58,608.038 413,596.5C 414.88,589.737 418.046,583.737 422.5,578.5C 423.646,579.145 424.646,579.978 425.5,581C 423.635,589.036 423.135,597.203 424,605.5C 434.833,596 445.667,586.5 456.5,577C 449.626,574.457 445.126,569.624 443,562.5C 440.723,558.205 441.056,554.205 444,550.5C 445.353,549.315 446.52,547.981 447.5,546.5C 450.839,551.397 455.506,553.397 461.5,552.5C 461.545,559.628 462.379,566.628 464,573.5C 471.622,568.879 477.955,562.879 483,555.5C 489.93,546.087 495.763,536.087 500.5,525.5C 496.27,526.169 494.437,524.502 495,520.5C 499.328,517.268 503.494,513.934 507.5,510.5 Z M 527.5,544.5 C 528.573,545.251 528.74,546.251 528,547.5C 521.892,562.188 515.225,576.522 508,590.5C 500.676,585.851 492.842,585.185 484.5,588.5C 483.833,588.167 483.167,587.833 482.5,587.5C 490.198,573.584 500.531,562.084 513.5,553C 518.338,550.303 523.005,547.47 527.5,544.5 Z"/></g>
<g><path style="opacity:0.871" fill="#eff8fe" d="M 314.5,515.5 C 318.006,517.144 319.506,519.811 319,523.5C 315.298,530.208 310.465,536.041 304.5,541C 302.5,541.667 300.5,541.667 298.5,541C 293.904,536.516 292.237,531.016 293.5,524.5C 295.167,524.5 296.833,524.5 298.5,524.5C 298.343,525.873 298.51,527.207 299,528.5C 304.145,524.029 309.312,519.696 314.5,515.5 Z"/></g>
<g><path style="opacity:0.908" fill="#eff8fe" d="M 713.5,520.5 C 724.623,520.313 732.456,525.313 737,535.5C 738.705,539.618 740.205,543.785 741.5,548C 740.167,549.333 738.833,550.667 737.5,552C 729.829,551.328 722.996,548.495 717,543.5C 714.64,537.42 712.473,531.253 710.5,525C 711.315,523.357 712.315,521.857 713.5,520.5 Z"/></g>
<g><path style="opacity:0.883" fill="#eff8fe" d="M 348.5,526.5 C 354.205,526.032 357.372,528.698 358,534.5C 358.667,539.167 358.667,543.833 358,548.5C 356.252,561.48 354.752,574.48 353.5,587.5C 357.493,587.245 360.326,588.911 362,592.5C 363.157,600.698 361.991,608.531 358.5,616C 365.089,623.798 367.423,622.298 365.5,611.5C 366.833,611.5 368.167,611.5 369.5,611.5C 369.873,622.106 370.873,632.606 372.5,643C 371.095,644.269 369.429,644.769 367.5,644.5C 365.755,635.565 361.255,628.232 354,622.5C 349.833,627.333 345.667,632.167 341.5,637C 340.365,637.749 339.365,637.583 338.5,636.5C 338.709,635.914 339.043,635.414 339.5,635C 338.57,633.806 337.903,632.473 337.5,631C 341.636,623.893 345.636,616.726 349.5,609.5C 348.366,605.432 347.033,601.432 345.5,597.5C 346.167,596.833 346.833,596.167 347.5,595.5C 344.605,585.805 340.938,576.472 336.5,567.5C 338.091,557.046 340.258,546.712 343,536.5C 344.07,532.689 345.903,529.356 348.5,526.5 Z M 344.5,556.5 C 345.158,557.793 345.492,559.293 345.5,561C 344.967,565.83 344.467,570.663 344,575.5C 343.476,569.15 343.642,562.816 344.5,556.5 Z"/></g>
<g><path style="opacity:0.884" fill="#eff8fe" d="M 26.5,578.5 C 29.4475,578.223 32.2809,578.556 35,579.5C 39.2977,595.58 42.2977,611.913 44,628.5C 51.331,635.082 59.831,639.416 69.5,641.5C 69.5,643.167 69.5,644.833 69.5,646.5C 50.7985,646.891 38.2985,638.224 32,620.5C 27.5965,606.842 25.7631,592.842 26.5,578.5 Z"/></g>
<g><path style="opacity:0.757" fill="#eff8fe" d="M 365.5,587.5 C 366.833,587.5 368.167,587.5 369.5,587.5C 369.296,600.563 367.963,600.563 365.5,587.5 Z"/></g>
<g><path style="opacity:0.865" fill="#eff8fe" d="M 165.5,614.5 C 170.575,613.572 173.908,615.572 175.5,620.5C 155.13,630.678 133.63,637.345 111,640.5C 108.391,640.625 106.058,639.958 104,638.5C 98.7722,640.864 93.6056,643.364 88.5,646C 84.4589,646.827 80.4589,646.66 76.5,645.5C 78.498,641.323 81.8313,638.823 86.5,638C 102.602,633.313 118.935,629.646 135.5,627C 145.096,621.533 155.096,617.366 165.5,614.5 Z"/></g>
<g><path style="opacity:0.693" fill="#eff8fe" d="M 215.5,625.5 C 223.183,627.307 224.016,630.64 218,635.5C 215.714,632.635 214.88,629.302 215.5,625.5 Z"/></g>
<g><path style="opacity:0.91" fill="#eff8fe" d="M 717.5,884.5 C 721.846,884.334 726.179,884.501 730.5,885C 733.135,888.772 734.802,892.939 735.5,897.5C 732.755,908.315 730.088,919.148 727.5,930C 727.509,931.404 728.009,932.57 729,933.5C 730.248,959.991 730.915,986.325 731,1012.5C 729,1013.5 729,1014.5 731,1015.5C 731.667,1026.5 731.667,1037.5 731,1048.5C 729.647,1049.69 728.48,1051.02 727.5,1052.5C 729.49,1055.89 729.99,1059.56 729,1063.5C 726.25,1071.41 722.917,1079.08 719,1086.5C 717.068,1089.88 714.568,1092.72 711.5,1095C 702.876,1097.22 695.543,1095.22 689.5,1089C 685.355,1086.93 681.021,1085.43 676.5,1084.5C 675.548,1082.95 675.215,1081.29 675.5,1079.5C 700.941,1086.17 714.941,1076.67 717.5,1051C 717.519,1047.94 716.853,1045.11 715.5,1042.5C 715.854,1039.75 716.521,1037.08 717.5,1034.5C 716.104,1033.15 715.437,1031.48 715.5,1029.5C 716.087,1026.32 716.754,1023.15 717.5,1020C 717.294,1018.13 716.628,1016.47 715.5,1015C 718.117,1006.66 718.117,998.324 715.5,990C 716.999,987.602 717.666,984.935 717.5,982C 716.789,973.004 716.122,964.004 715.5,955C 715.746,949.777 716.413,944.61 717.5,939.5C 716.833,937.833 716.167,936.167 715.5,934.5C 717.993,922.216 719.826,909.883 721,897.5C 711.915,895.307 703.415,896.807 695.5,902C 679.649,912.181 664.649,923.514 650.5,936C 651.874,938.583 653.374,941.083 655,943.5C 662.422,939.539 669.922,935.706 677.5,932C 679.112,931.28 680.612,931.446 682,932.5C 682.667,934.5 682.667,936.5 682,938.5C 675.455,944.71 669.289,951.21 663.5,958C 669.51,966.529 672.844,976.029 673.5,986.5C 673.333,988.5 673.167,990.5 673,992.5C 670.302,996.367 667.802,1000.37 665.5,1004.5C 666.981,1008.29 668.647,1011.95 670.5,1015.5C 676.631,1009.25 681.797,1002.25 686,994.5C 689.316,997.135 691.816,1000.3 693.5,1004C 693.333,1004.83 693.167,1005.67 693,1006.5C 686.455,1012.71 680.289,1019.21 674.5,1026C 675.667,1029.5 676.833,1033 678,1036.5C 681.473,1037.04 684.806,1038.04 688,1039.5C 688.667,1041.17 688.667,1042.83 688,1044.5C 685.592,1046.96 682.759,1048.79 679.5,1050C 666.92,1055.06 653.92,1058.06 640.5,1059C 638.5,1057 636.5,1055 634.5,1053C 643.833,1048.33 653.167,1043.67 662.5,1039C 660.114,1032.63 658.114,1026.13 656.5,1019.5C 654.801,1019.34 653.134,1019.51 651.5,1020C 645.174,1024.83 638.508,1029.16 631.5,1033C 626.7,1034.28 623.866,1032.45 623,1027.5C 622.333,1026.17 622.333,1024.83 623,1023.5C 628.333,1014.83 633.667,1006.17 639,997.5C 639.49,996.207 639.657,994.873 639.5,993.5C 633.456,995.293 627.456,997.293 621.5,999.5C 618.957,997.978 616.957,995.812 615.5,993C 620.879,985.743 626.379,978.577 632,971.5C 632.688,970.668 632.521,970.002 631.5,969.5C 624.566,974.217 617.4,978.55 610,982.5C 606.738,981.065 603.904,979.065 601.5,976.5C 613.011,970.656 623.177,962.99 632,953.5C 632.498,950.518 632.665,947.518 632.5,944.5C 626.798,944.079 621.131,943.412 615.5,942.5C 615.34,940.801 615.506,939.134 616,937.5C 621.833,933.667 627.667,929.833 633.5,926C 635.112,923.678 636.445,921.178 637.5,918.5C 639.527,920.339 641.86,920.839 644.5,920C 668.139,906.513 692.472,894.679 717.5,884.5 Z M 637.5,944.5 C 639.5,944.5 641.5,944.5 643.5,944.5C 643.799,946.604 643.466,948.604 642.5,950.5C 640.062,949.069 638.396,947.069 637.5,944.5 Z M 651.5,964.5 C 652.822,964.33 653.989,964.663 655,965.5C 658,970.167 661,974.833 664,979.5C 663.916,984.509 663.416,989.509 662.5,994.5C 661.167,994.5 659.833,994.5 658.5,994.5C 657.012,988.403 657.345,982.403 659.5,976.5C 657.483,975.47 655.483,974.47 653.5,973.5C 652.558,973.608 651.725,973.941 651,974.5C 649.979,971.895 649.145,969.228 648.5,966.5C 649.602,965.824 650.602,965.158 651.5,964.5 Z M 638.5,976.5 C 639.5,976.5 640.5,976.5 641.5,976.5C 640.054,983.453 635.888,988.12 629,990.5C 627.457,989.423 627.457,988.089 629,986.5C 631.696,982.639 634.863,979.306 638.5,976.5 Z M 647.5,998.5 C 651.056,1000.09 652.222,1002.75 651,1006.5C 646.333,1010.5 641.667,1014.5 637,1018.5C 640.186,1011.8 643.686,1005.13 647.5,998.5 Z"/></g>
<g><path style="opacity:0.841" fill="#eff8fe" d="M 166.5,890.5 C 168.604,890.201 170.604,890.534 172.5,891.5C 173.48,892.981 174.647,894.315 176,895.5C 176.667,896.5 176.667,897.5 176,898.5C 163.5,911 151,923.5 138.5,936C 137.207,936.49 135.873,936.657 134.5,936.5C 134.608,934.217 135.441,932.217 137,930.5C 143.287,922.757 149.454,914.924 155.5,907C 154.5,906.333 153.5,906.333 152.5,907C 146.5,910.333 140.5,913.667 134.5,917C 131.518,917.498 128.518,917.665 125.5,917.5C 125.5,918.833 125.5,920.167 125.5,921.5C 123.167,921.5 120.833,921.5 118.5,921.5C 116.776,928.412 113.776,929.079 109.5,923.5C 109.977,922.522 110.643,921.689 111.5,921C 115.568,921.293 118.902,919.959 121.5,917C 122.448,916.517 123.448,916.351 124.5,916.5C 124.921,914.09 126.254,912.257 128.5,911C 139.978,901.764 152.645,894.931 166.5,890.5 Z"/></g>
<g><path style="opacity:0.912" fill="#eff8fe" d="M 418.5,900.5 C 420.948,900.01 422.615,900.843 423.5,903C 421.597,907.542 419.597,912.042 417.5,916.5C 418.896,917.852 419.563,919.519 419.5,921.5C 418.058,931.128 417.558,940.794 418,950.5C 428.3,940.904 433.967,929.237 435,915.5C 436.388,914.446 437.888,914.28 439.5,915C 441.398,917.388 443.065,919.888 444.5,922.5C 443.372,928.717 441.539,934.717 439,940.5C 432.985,951.2 425.985,961.2 418,970.5C 417.123,983.542 417.456,996.542 419,1009.5C 419.409,1014.23 421.743,1017.57 426,1019.5C 434.579,1015.42 443.579,1012.75 453,1011.5C 457.479,1012.32 460.312,1014.82 461.5,1019C 459.277,1031.5 457.444,1044 456,1056.5C 472.633,1032.9 485.3,1007.23 494,979.5C 498.719,963.682 503.219,947.849 507.5,932C 512.043,930.385 514.876,931.885 516,936.5C 518.346,966.784 519.679,997.117 520,1027.5C 519.399,1030.64 518.399,1033.64 517,1036.5C 508.918,1037.43 504.751,1033.6 504.5,1025C 506.351,1001.52 507.517,978.021 508,954.5C 506.291,975.002 501.291,994.668 493,1013.5C 481.473,1038.74 467.306,1062.24 450.5,1084C 447.5,1084.67 444.5,1084.67 441.5,1084C 438.599,1081.03 436.599,1077.53 435.5,1073.5C 440.89,1056.89 444.223,1039.89 445.5,1022.5C 438.679,1023.91 431.846,1025.25 425,1026.5C 418.351,1026.84 413.351,1024.17 410,1018.5C 404.949,1008.08 402.783,997.079 403.5,985.5C 400.167,985.5 396.833,985.5 393.5,985.5C 393.334,978.492 393.5,971.492 394,964.5C 401.725,946.99 408.059,928.99 413,910.5C 414.592,906.979 416.425,903.646 418.5,900.5 Z"/></g>
<g><path style="opacity:0.934" fill="#eff8fe" d="M 828.5,902.5 C 833.167,902.5 837.833,902.5 842.5,902.5C 842.788,911.594 839.954,919.594 834,926.5C 830.643,930.356 827.476,934.356 824.5,938.5C 828.24,941.676 829.406,945.676 828,950.5C 826.027,964.398 822.193,977.731 816.5,990.5C 829.84,972.852 842.673,954.185 855,934.5C 857.758,930.295 861.425,928.295 866,928.5C 867.476,932.404 868.643,936.404 869.5,940.5C 875.545,938.396 881.045,935.396 886,931.5C 891.067,933.559 892.734,937.226 891,942.5C 889.697,944.94 888.53,947.44 887.5,950C 890.142,959.681 891.309,969.515 891,979.5C 888.798,988.773 885.798,997.773 882,1006.5C 880.675,1026.19 886.008,1043.86 898,1059.5C 898.667,1063.17 898.667,1066.83 898,1070.5C 896.833,1071.67 895.667,1072.83 894.5,1074C 878.494,1077.83 872.161,1071.66 875.5,1055.5C 868.839,1055.34 864.672,1052.01 863,1045.5C 861.42,1038.49 861.087,1031.49 862,1024.5C 856.052,1032.06 851.386,1040.39 848,1049.5C 848.175,1053.86 848.508,1058.19 849,1062.5C 846.5,1065 844,1067.5 841.5,1070C 833.233,1072.88 828.4,1070.04 827,1061.5C 826.182,1058.89 825.682,1056.23 825.5,1053.5C 831.773,1027.01 840.44,1001.35 851.5,976.5C 849.347,972.823 848.014,968.823 847.5,964.5C 835.75,980.323 825.25,996.99 816,1014.5C 814.382,1018.07 813.049,1021.73 812,1025.5C 811.624,1035.65 810.29,1045.65 808,1055.5C 806.758,1056.87 805.258,1057.87 803.5,1058.5C 794.023,1051.76 787.023,1042.92 782.5,1032C 783.734,1027.46 785.067,1022.96 786.5,1018.5C 776.625,1017.14 774.125,1012.14 779,1003.5C 784.752,994.331 790.252,984.998 795.5,975.5C 794.998,974.479 794.332,974.312 793.5,975C 787.5,980 781.5,985 775.5,990C 773.527,990.495 771.527,990.662 769.5,990.5C 769.336,987.813 769.503,985.146 770,982.5C 780.047,973.964 789.714,964.964 799,955.5C 801.324,952.52 802.824,949.187 803.5,945.5C 788.353,946.451 782.686,939.784 786.5,925.5C 788.722,925.178 790.556,925.845 792,927.5C 805.709,921.244 817.876,912.91 828.5,902.5 Z M 859.5,935.5 C 860.118,943.127 857.618,949.793 852,955.5C 853.205,948.391 855.705,941.724 859.5,935.5 Z M 812.5,964.5 C 808.229,976.201 801.562,986.368 792.5,995C 791.255,995.791 789.922,996.291 788.5,996.5C 796.016,985.467 804.016,974.8 812.5,964.5 Z M 868.5,966.5 C 872.086,982.014 867.252,994.347 854,1003.5C 857.138,990.602 861.971,978.268 868.5,966.5 Z"/></g>
<g><path style="opacity:0.932" fill="#eff8fe" d="M 255.5,910.5 C 259.95,910.142 263.45,911.808 266,915.5C 267.156,919.44 267.99,923.44 268.5,927.5C 271.74,927.232 274.906,926.566 278,925.5C 282.321,926.547 285.488,928.881 287.5,932.5C 286.435,945.143 285.768,957.81 285.5,970.5C 288.448,970.223 291.281,970.556 294,971.5C 295.073,975.084 295.74,978.75 296,982.5C 300.21,977.233 304.377,977.233 308.5,982.5C 324.374,974.959 335.374,962.959 341.5,946.5C 341,946.167 340.5,945.833 340,945.5C 328.756,949.64 317.256,952.64 305.5,954.5C 304.874,945.653 305.707,936.986 308,928.5C 313.296,921.497 316.962,922.164 319,930.5C 315.866,933.756 316.866,935.423 322,935.5C 327.009,933.412 331.842,930.912 336.5,928C 343.09,926.148 348.59,927.648 353,932.5C 353.667,942.167 353.667,951.833 353,961.5C 351.392,964.772 349.392,967.772 347,970.5C 346.51,971.793 346.343,973.127 346.5,974.5C 353.632,974.802 356.465,978.469 355,985.5C 352.833,987.667 350.667,989.833 348.5,992C 344.671,992.758 341.338,991.758 338.5,989C 336.19,988.503 333.857,988.337 331.5,988.5C 329.903,995.256 325.57,999.09 318.5,1000C 316.833,1000.67 315.167,1000.67 313.5,1000C 311.333,998.5 309.167,997 307,995.5C 305.139,1001.41 304.639,1007.41 305.5,1013.5C 307.001,1014.75 308.668,1015.75 310.5,1016.5C 325.782,1007.03 341.782,998.859 358.5,992C 360.5,991.333 362.5,991.333 364.5,992C 366.667,994.167 368.833,996.333 371,998.5C 371.667,999.5 371.667,1000.5 371,1001.5C 353.595,1015.45 334.095,1025.62 312.5,1032C 309.872,1033.63 307.539,1035.63 305.5,1038C 299.167,1038.67 292.833,1038.67 286.5,1038C 284.879,1035.83 284.045,1033.33 284,1030.5C 279.751,1039.49 276.418,1048.82 274,1058.5C 273,1059.5 272,1060.5 271,1061.5C 270.501,1065.15 270.335,1068.82 270.5,1072.5C 266.03,1073.12 262.03,1072.12 258.5,1069.5C 262.108,1050.96 265.774,1032.46 269.5,1014C 268.646,1012.98 267.646,1012.14 266.5,1011.5C 248.676,1031.49 231.009,1051.66 213.5,1072C 206.463,1071.62 204.296,1068.12 207,1061.5C 216.167,1050.5 225.333,1039.5 234.5,1028.5C 231.216,1026.88 228.549,1024.55 226.5,1021.5C 228.598,1016.37 230.598,1011.21 232.5,1006C 229.995,1003.49 227.829,1000.65 226,997.5C 224.637,993.239 224.304,988.905 225,984.5C 227.333,980.5 229.667,976.5 232,972.5C 232,969.167 232,965.833 232,962.5C 236.022,957.979 239.856,953.312 243.5,948.5C 240.253,947.422 238.253,945.256 237.5,942C 240.029,933.439 243.529,925.273 248,917.5C 250.396,914.933 252.896,912.6 255.5,910.5 Z M 273.5,942.5 C 275.474,952.111 276.141,962.111 275.5,972.5C 274.167,972.5 272.833,972.5 271.5,972.5C 271.675,983.486 267.508,992.486 259,999.5C 261.542,991.056 264.709,982.723 268.5,974.5C 267.346,971.31 265.012,969.644 261.5,969.5C 263.473,966.36 265.64,963.36 268,960.5C 269.017,955.197 266.85,952.863 261.5,953.5C 261.393,951.097 262.393,949.264 264.5,948C 267.564,946.141 270.564,944.308 273.5,942.5 Z M 243.5,963.5 C 246.64,962.359 249.973,962.192 253.5,963C 249.991,966.496 247.324,970.496 245.5,975C 246.418,979.816 249.418,982.316 254.5,982.5C 252.183,985.317 249.683,987.984 247,990.5C 245.621,983.27 244.121,976.103 242.5,969C 244.553,967.322 244.887,965.489 243.5,963.5 Z M 291.5,989.5 C 291.37,997.388 288.87,1004.72 284,1011.5C 283.333,1007.5 283.333,1003.5 284,999.5C 286.717,996.29 289.217,992.956 291.5,989.5 Z"/></g>
<g><path style="opacity:0.927" fill="#eff8fe" d="M 594.5,914.5 C 597.325,914.081 599.491,915.081 601,917.5C 601.535,920.827 601.035,923.994 599.5,927C 600.459,928.707 601.125,930.541 601.5,932.5C 598.751,934.789 596.917,937.789 596,941.5C 594.667,963.156 594,984.823 594,1006.5C 596.21,1027.34 601.543,1047.34 610,1066.5C 612.507,1074.69 613.841,1083.03 614,1091.5C 610.302,1095.53 605.802,1096.53 600.5,1094.5C 583.159,1055.63 575.659,1014.96 578,972.5C 581.984,952.717 587.484,933.384 594.5,914.5 Z"/></g>
<g><path style="opacity:0.925" fill="#eff8fe" d="M 58.5,922.5 C 70.7075,929.038 80.3741,938.371 87.5,950.5C 82,962.833 76.5,975.167 71,987.5C 70.3333,992.833 70.3333,998.167 71,1003.5C 73.3333,1015.17 75.6667,1026.83 78,1038.5C 78.6667,1045.17 78.6667,1051.83 78,1058.5C 75.7342,1059.96 73.2342,1060.79 70.5,1061C 64.0876,1060.69 58.0876,1062.03 52.5,1065C 49.677,1072.3 45.3437,1078.63 39.5,1084C 37.1667,1084.67 34.8333,1084.67 32.5,1084C 26.7285,1079.56 24.8951,1073.72 27,1066.5C 39.1326,1054.04 50.1326,1040.71 60,1026.5C 59.4131,1014.8 58.2464,1003.13 56.5,991.5C 48.995,993.33 43.3283,990.996 39.5,984.5C 43.2937,980.427 47.9604,977.594 53.5,976C 55.5425,969.463 57.2091,962.796 58.5,956C 57.8333,954.667 57.1667,953.333 56.5,952C 58.8416,943.7 58.8416,935.367 56.5,927C 56.5186,925.167 57.1852,923.667 58.5,922.5 Z M 74.5,942.5 C 76.0847,943.002 76.5847,944.002 76,945.5C 74.9614,944.756 74.4614,943.756 74.5,942.5 Z M 76.5,946.5 C 77.647,949.289 77.147,951.956 75,954.5C 74.6736,951.668 75.1736,949.001 76.5,946.5 Z M 56.5,1051.5 C 57.7951,1047.58 59.6284,1043.91 62,1040.5C 62.4983,1043.82 62.665,1047.15 62.5,1050.5C 60.5,1050.83 58.5,1051.17 56.5,1051.5 Z"/></g>
<g><path style="opacity:0.892" fill="#eff8fe" d="M 94.5,939.5 C 96.9032,939.393 98.7365,940.393 100,942.5C 103.5,947.333 107,952.167 110.5,957C 107.119,961.811 102.786,962.811 97.5,960C 88.9581,958.6 86.1248,953.767 89,945.5C 91.0396,943.63 92.8729,941.63 94.5,939.5 Z"/></g>
<g><path style="opacity:0.905" fill="#eff8fe" d="M 158.5,943.5 C 165.709,943.888 168.709,947.721 167.5,955C 165.678,963.217 164.344,971.383 163.5,979.5C 165.82,986.865 165.82,994.032 163.5,1001C 164.943,1012.15 166.276,1023.32 167.5,1034.5C 166.075,1040.71 162.075,1043.21 155.5,1042C 153.316,1039.98 151.316,1037.82 149.5,1035.5C 154.618,1022.8 154.618,1010.14 149.5,997.5C 150.833,994.833 152.167,992.167 153.5,989.5C 153.023,988.522 152.357,987.689 151.5,987C 154.455,977.362 155.122,967.528 153.5,957.5C 145.5,963.167 137.5,968.833 129.5,974.5C 127.728,973.73 126.728,972.397 126.5,970.5C 133.605,957.044 144.272,948.044 158.5,943.5 Z"/></g>
<g><path style="opacity:0.875" fill="#eff8fe" d="M 110.5,982.5 C 111.822,982.33 112.989,982.663 114,983.5C 114.195,991.748 114.361,999.915 114.5,1008C 115.211,1012.63 113.378,1015.79 109,1017.5C 105.582,1016.09 103.749,1013.59 103.5,1010C 104.383,1000.41 106.716,991.239 110.5,982.5 Z"/></g>
<g><path style="opacity:0.86" fill="#eff8fe" d="M 537.5,984.5 C 543.509,984.334 549.509,984.501 555.5,985C 556.622,987.124 558.122,988.957 560,990.5C 561.261,995.7 559.428,999.034 554.5,1000.5C 543.513,1000.51 537.847,995.175 537.5,984.5 Z"/></g>
<g><path style="opacity:0.883" fill="#eff8fe" d="M 128.5,1003.5 C 130.708,1004.89 132.208,1006.89 133,1009.5C 135.433,1015.69 135.933,1022.02 134.5,1028.5C 127.348,1033.77 122.681,1032.27 120.5,1024C 120.96,1021.42 121.96,1019.08 123.5,1017C 122.541,1014.88 122.374,1012.71 123,1010.5C 124.842,1008.14 126.675,1005.8 128.5,1003.5 Z"/></g>
<g><path style="opacity:0.892" fill="#eff8fe" d="M 103.5,1022.5 C 110.182,1021.37 113.682,1024.04 114,1030.5C 113.5,1031 113,1031.5 112.5,1032C 114.126,1035.71 115.459,1039.54 116.5,1043.5C 112.383,1050.03 108.216,1050.03 104,1043.5C 103.5,1036.51 103.334,1029.51 103.5,1022.5 Z"/></g>
<g><path style="opacity:0.931" fill="#eff8fe" d="M 879.5,1322.5 C 884.815,1322.93 889.815,1324.43 894.5,1327C 896.124,1328.12 897.124,1329.62 897.5,1331.5C 892.884,1343.4 886.718,1354.4 879,1364.5C 876.851,1369.72 876.351,1375.06 877.5,1380.5C 889.833,1387.33 902.167,1394.17 914.5,1401C 923.525,1412.4 925.025,1424.9 919,1438.5C 910.246,1456.59 898.413,1472.43 883.5,1486C 880.211,1486.75 877.711,1485.58 876,1482.5C 871.794,1473.21 868.794,1463.55 867,1453.5C 857.077,1464.76 844.744,1471.76 830,1474.5C 828.056,1473.56 826.389,1472.23 825,1470.5C 819.107,1488.29 812.107,1505.62 804,1522.5C 802.542,1524.96 800.709,1527.13 798.5,1529C 797.167,1529.67 795.833,1529.67 794.5,1529C 791.333,1526.5 788.167,1524 785,1521.5C 785.038,1497.9 787.704,1474.56 793,1451.5C 798.22,1427.06 803.553,1402.73 809,1378.5C 797.626,1397.42 786.126,1416.25 774.5,1435C 773.167,1435.67 771.833,1435.67 770.5,1435C 766.667,1431.17 762.833,1427.33 759,1423.5C 757.195,1417.6 758.695,1412.93 763.5,1409.5C 765.167,1410.83 766.833,1412.17 768.5,1413.5C 772.27,1411.2 775.77,1408.53 779,1405.5C 788.667,1388.83 798.333,1372.17 808,1355.5C 810.034,1352.14 812.368,1351.81 815,1354.5C 815.48,1350.4 814.98,1346.4 813.5,1342.5C 813.977,1341.52 814.643,1340.69 815.5,1340C 828.967,1337.06 836.3,1342.39 837.5,1356C 836.879,1362.32 835.545,1368.49 833.5,1374.5C 845.866,1355.41 861.199,1338.08 879.5,1322.5 Z M 866.5,1350.5 C 867.376,1350.37 868.043,1350.7 868.5,1351.5C 865.05,1361.92 863.883,1372.58 865,1383.5C 865.76,1389.76 869.26,1393.09 875.5,1393.5C 875.286,1395.14 875.62,1396.64 876.5,1398C 885.072,1400.75 893.406,1404.08 901.5,1408C 909.146,1411.79 911.313,1417.63 908,1425.5C 903.181,1440.14 896.015,1453.47 886.5,1465.5C 883.104,1461.72 879.937,1457.72 877,1453.5C 876.333,1452.17 876.333,1450.83 877,1449.5C 880.746,1453.39 884.412,1453.39 888,1449.5C 889.509,1443.72 888.009,1438.88 883.5,1435C 880.784,1434.22 878.45,1432.88 876.5,1431C 878.451,1424.59 879.617,1418.09 880,1411.5C 877.376,1407.02 873.542,1405.02 868.5,1405.5C 869.933,1424.9 860.933,1433.73 841.5,1432C 829.359,1436.14 821.193,1444.31 817,1456.5C 815.964,1461.32 814.631,1465.98 813,1470.5C 813.438,1448.64 817.105,1427.31 824,1406.5C 827.735,1409.45 831.069,1409.12 834,1405.5C 839.739,1384 850.572,1365.67 866.5,1350.5 Z M 842.5,1444.5 C 845.518,1444.34 848.518,1444.5 851.5,1445C 844.958,1449.87 839.458,1455.71 835,1462.5C 827.312,1459.12 826.479,1454.95 832.5,1450C 835.767,1447.87 839.1,1446.04 842.5,1444.5 Z"/></g>
<g><path style="opacity:0.931" fill="#eff8fe" d="M 58.5,1335.5 C 72.2377,1331.96 80.571,1336.96 83.5,1350.5C 80.8312,1354.34 78.8312,1358.5 77.5,1363C 70.566,1363.8 64.2327,1362.14 58.5,1358C 53.044,1354.21 47.8774,1350.05 43,1345.5C 42.1923,1343.42 42.359,1341.42 43.5,1339.5C 48.6548,1338.3 53.6548,1336.96 58.5,1335.5 Z"/></g>
<g><path style="opacity:0.928" fill="#eff8fe" d="M 481.5,1343.5 C 484.518,1343.34 487.518,1343.5 490.5,1344C 492.333,1345.83 494.167,1347.67 496,1349.5C 496.667,1351.5 496.667,1353.5 496,1355.5C 487.727,1369.45 477.56,1381.95 465.5,1393C 472.487,1389.86 479.821,1387.19 487.5,1385C 493.119,1383.7 498.786,1383.37 504.5,1384C 507.914,1389.74 510.247,1395.91 511.5,1402.5C 505.471,1429.73 492.804,1453.23 473.5,1473C 471.833,1473.33 470.167,1473.67 468.5,1474C 478.5,1474.67 488.5,1474.67 498.5,1474C 510.388,1470.86 522.388,1468.36 534.5,1466.5C 541.881,1465.73 547.547,1468.4 551.5,1474.5C 530.687,1481.49 510.02,1488.99 489.5,1497C 479.092,1501.42 469.759,1507.42 461.5,1515C 456.647,1516.13 454.147,1514.3 454,1509.5C 463.618,1499.47 472.784,1491.8 481.5,1486.5C 478.29,1486.98 475.124,1487.64 472,1488.5C 464.879,1487.22 457.713,1486.72 450.5,1487C 444.112,1499.05 434.779,1508.05 422.5,1514C 420.091,1514.93 417.591,1515.43 415,1515.5C 411.44,1514.79 407.94,1513.79 404.5,1512.5C 402.686,1501.88 405.686,1493.05 413.5,1486C 417.048,1484.06 420.714,1482.39 424.5,1481C 422.926,1473.61 422.426,1466.11 423,1458.5C 432.358,1442.76 438.358,1425.76 441,1407.5C 456.7,1387.62 470.2,1366.28 481.5,1343.5 Z M 494.5,1392.5 C 495.675,1392.28 496.675,1392.61 497.5,1393.5C 488.333,1413.17 479.167,1432.83 470,1452.5C 467.205,1453.78 464.372,1453.78 461.5,1452.5C 465.672,1444.66 468.005,1436.32 468.5,1427.5C 469.72,1421.83 467.886,1417.49 463,1414.5C 462.333,1413.83 462.333,1413.17 463,1412.5C 472.238,1403.64 482.738,1396.98 494.5,1392.5 Z M 451.5,1428.5 C 452.586,1428.62 453.253,1429.29 453.5,1430.5C 450.129,1444.91 444.296,1458.24 436,1470.5C 435.182,1467.77 435.348,1465.11 436.5,1462.5C 439.215,1459.94 441.382,1456.94 443,1453.5C 446.142,1445.24 448.976,1436.91 451.5,1428.5 Z M 441.5,1479.5 C 442.552,1479.35 443.552,1479.52 444.5,1480C 437.5,1485.67 430.5,1491.33 423.5,1497C 421.833,1497.67 420.167,1497.67 418.5,1497C 424.397,1488.73 432.064,1482.9 441.5,1479.5 Z"/></g>
<g><path style="opacity:0.896" fill="#eff8fe" d="M 161.5,1352.5 C 168.649,1350.67 173.649,1353 176.5,1359.5C 170.258,1372.06 165.091,1385.06 161,1398.5C 156.001,1417.33 151.834,1436.33 148.5,1455.5C 146.292,1457.1 143.959,1458.44 141.5,1459.5C 139.041,1458.44 136.708,1457.1 134.5,1455.5C 125.2,1471.96 115.7,1488.3 106,1504.5C 101.863,1510.6 97.363,1516.44 92.5,1522C 90.08,1521.63 88.08,1520.3 86.5,1518C 87.1905,1516.93 87.6905,1515.77 88,1514.5C 100.455,1492.42 113.288,1470.59 126.5,1449C 123.711,1448.76 121.044,1448.09 118.5,1447C 117.056,1445.87 116.39,1444.37 116.5,1442.5C 117.642,1436.62 118.976,1430.79 120.5,1425C 114.772,1420.95 112.938,1415.45 115,1408.5C 116.866,1406.48 118.033,1404.15 118.5,1401.5C 117.832,1397.15 117.165,1392.82 116.5,1388.5C 126.261,1389.44 130.094,1394.78 128,1404.5C 126.086,1406.75 124.586,1409.25 123.5,1412C 124.992,1413.88 126.992,1414.88 129.5,1415C 131.297,1416.59 132.297,1418.59 132.5,1421C 130.251,1427 127.584,1432.83 124.5,1438.5C 129.005,1440.45 133.672,1441.78 138.5,1442.5C 143.394,1417.09 150.394,1392.26 159.5,1368C 159.333,1367.5 159.167,1367 159,1366.5C 151.5,1374 144,1381.5 136.5,1389C 121.621,1388.63 119.621,1383.3 130.5,1373C 140.213,1365.15 150.546,1358.32 161.5,1352.5 Z"/></g>
<g><path style="opacity:0.911" fill="#eff8fe" d="M 602.5,1353.5 C 604.833,1353.5 607.167,1353.5 609.5,1353.5C 605.772,1377.37 601.772,1401.2 597.5,1425C 597.833,1425.83 598.167,1426.67 598.5,1427.5C 615.973,1415.19 633.306,1402.69 650.5,1390C 655.543,1391.09 657.376,1394.25 656,1399.5C 647.195,1405.97 640.195,1413.97 635,1423.5C 629.801,1442.26 624.301,1460.93 618.5,1479.5C 622.778,1480.88 627.112,1481.71 631.5,1482C 632.471,1476.93 632.805,1471.76 632.5,1466.5C 637.265,1466.43 640.098,1468.76 641,1473.5C 641.667,1477.83 641.667,1482.17 641,1486.5C 639.833,1487.67 638.667,1488.83 637.5,1490C 627.819,1489.86 618.153,1489.53 608.5,1489C 606.65,1491.02 604.65,1492.85 602.5,1494.5C 597.315,1491.32 597.315,1487.98 602.5,1484.5C 597.667,1475.5 592.833,1466.5 588,1457.5C 582.689,1462.15 576.523,1463.65 569.5,1462C 564.833,1458.67 560.167,1455.33 555.5,1452C 562.967,1449.06 570.3,1445.73 577.5,1442C 582.774,1438.73 586.608,1434.23 589,1428.5C 589.623,1402.76 594.123,1377.76 602.5,1353.5 Z M 616.5,1432.5 C 617.497,1432.47 618.164,1432.97 618.5,1434C 615.255,1446.48 612.089,1458.98 609,1471.5C 607.667,1472.83 606.333,1472.83 605,1471.5C 603.333,1465.83 601.667,1460.17 600,1454.5C 599.333,1452.17 599.333,1449.83 600,1447.5C 604.448,1441.21 609.948,1436.21 616.5,1432.5 Z"/></g>
<g><path style="opacity:0.934" fill="#eff8fe" d="M 301.5,1355.5 C 309.224,1354.86 315.224,1357.86 319.5,1364.5C 310.551,1382.94 297.551,1397.78 280.5,1409C 274.86,1410.99 269.194,1412.82 263.5,1414.5C 266.276,1418.05 267.943,1422.05 268.5,1426.5C 265.676,1455.8 258.176,1483.8 246,1510.5C 242.486,1517.68 236.652,1521.52 228.5,1522C 224.5,1522.67 220.5,1522.67 216.5,1522C 213.913,1520.47 213.08,1518.31 214,1515.5C 228.155,1509.36 236.155,1498.69 238,1483.5C 241.491,1478.37 243.824,1472.71 245,1466.5C 248.504,1453.85 251.004,1441.19 252.5,1428.5C 247.568,1430.37 242.568,1432.03 237.5,1433.5C 228.16,1430.94 225.16,1424.94 228.5,1415.5C 229.472,1413.36 231.139,1412.2 233.5,1412C 238.785,1410.97 244.118,1410.31 249.5,1410C 257.273,1401.88 265.106,1394.38 273,1387.5C 269.333,1383.83 265.667,1380.17 262,1376.5C 261.312,1375.67 261.479,1375 262.5,1374.5C 275.714,1368.39 288.714,1362.06 301.5,1355.5 Z"/></g>
<g><path style="opacity:0.941" fill="#eff8fe" d="M 75.5,1377.5 C 80.0272,1378.68 83.8605,1381.01 87,1384.5C 89.6037,1405.17 87.1037,1425.17 79.5,1444.5C 80.0016,1445.52 80.6683,1445.69 81.5,1445C 84.6919,1442.31 88.0252,1439.81 91.5,1437.5C 97.1335,1440.84 97.9668,1445.17 94,1450.5C 89.3333,1457.83 84.6667,1465.17 80,1472.5C 80.0239,1485.19 80.3572,1497.85 81,1510.5C 76.8465,1513.34 73.1799,1512.67 70,1508.5C 67.1153,1500.44 65.4486,1492.11 65,1483.5C 55.6379,1495.05 47.1379,1507.22 39.5,1520C 36.0437,1521.12 33.2103,1520.29 31,1517.5C 27.3657,1510.9 24.8657,1503.9 23.5,1496.5C 23.7628,1493.97 24.5961,1491.64 26,1489.5C 37,1471.5 48,1453.5 59,1435.5C 67.7946,1433.98 72.4613,1428.64 73,1419.5C 73.5833,1415.17 74.0833,1410.83 74.5,1406.5C 73.1266,1406.34 71.7932,1406.51 70.5,1407C 63.9772,1419.19 54.9772,1429.19 43.5,1437C 35.9931,1436.85 30.4931,1433.35 27,1426.5C 25.8512,1423.61 25.3512,1420.61 25.5,1417.5C 26.8734,1417.66 28.2068,1417.49 29.5,1417C 38.867,1411.31 47.367,1404.47 55,1396.5C 60.8757,1388.78 67.7091,1382.44 75.5,1377.5 Z M 61.5,1463.5 C 62.7165,1458.18 64.7165,1453.18 67.5,1448.5C 70.8766,1455.44 68.8766,1460.44 61.5,1463.5 Z"/></g>
<g><path style="opacity:0.933" fill="#eff8fe" d="M 708.5,1388.5 C 710.857,1388.34 713.19,1388.5 715.5,1389C 718.5,1392 721.5,1395 724.5,1398C 716.975,1407.36 709.642,1416.86 702.5,1426.5C 703.27,1428.27 704.603,1429.27 706.5,1429.5C 713.801,1427.22 721.134,1427.06 728.5,1429C 730.363,1430.42 730.863,1432.25 730,1434.5C 725.801,1439.03 721.301,1443.2 716.5,1447C 707.581,1452.71 698.748,1458.54 690,1464.5C 688.321,1457.48 685.321,1451.15 681,1445.5C 679.125,1435.99 680.958,1427.33 686.5,1419.5C 686.023,1418.07 685.357,1416.74 684.5,1415.5C 677.55,1417.65 670.55,1419.65 663.5,1421.5C 660.014,1420.88 659.014,1419.04 660.5,1416C 676.726,1407.06 692.726,1397.89 708.5,1388.5 Z"/></g>
<g><path style="opacity:0.898" fill="#eff8fe" d="M 99.5,1390.5 C 103.594,1389.7 106.761,1391.04 109,1394.5C 111.088,1414.2 113.088,1433.87 115,1453.5C 113.667,1454.83 112.333,1456.17 111,1457.5C 109.045,1456.55 107.378,1455.21 106,1453.5C 100.434,1440.62 97.6012,1427.12 97.5,1413C 98.1344,1405.49 98.801,1397.99 99.5,1390.5 Z"/></g>
<g><path style="opacity:0.921" fill="#eff8fe" d="M 292.5,1408.5 C 297.022,1407.62 300.355,1409.12 302.5,1413C 300.767,1417.8 298.767,1422.46 296.5,1427C 297.927,1429.37 299.761,1429.87 302,1428.5C 303.153,1425.29 303.82,1421.96 304,1418.5C 306.242,1417.83 308.409,1418.33 310.5,1420C 315.123,1420.96 319.79,1421.62 324.5,1422C 326.101,1425.21 327.434,1428.54 328.5,1432C 328.355,1432.77 328.022,1433.44 327.5,1434C 316.385,1436.03 306.218,1440.2 297,1446.5C 296.138,1448.09 295.471,1449.75 295,1451.5C 293.833,1461.83 293.167,1472.16 293,1482.5C 293.833,1483.33 294.667,1484.17 295.5,1485C 306.999,1482.67 318.666,1481.17 330.5,1480.5C 335.17,1480.34 339.67,1481.01 344,1482.5C 348.78,1481.46 353.113,1479.46 357,1476.5C 355.316,1454.08 350.816,1432.25 343.5,1411C 345.441,1410.26 347.274,1410.42 349,1411.5C 354.587,1428.68 363.253,1444.02 375,1457.5C 375.793,1466.02 378.126,1474.02 382,1481.5C 382.667,1483.83 382.667,1486.17 382,1488.5C 379.457,1490.35 376.624,1491.52 373.5,1492C 359.5,1492.33 345.5,1492.67 331.5,1493C 318.177,1495.44 304.844,1497.44 291.5,1499C 287.449,1495.28 284.616,1490.78 283,1485.5C 282.242,1472.14 282.408,1458.81 283.5,1445.5C 280.833,1445.5 278.167,1445.5 275.5,1445.5C 275.351,1444.45 275.517,1443.45 276,1442.5C 281.005,1439.51 284.338,1435.17 286,1429.5C 286.274,1421.82 288.44,1414.82 292.5,1408.5 Z"/></g>
<g><path style="opacity:0.892" fill="#eff8fe" d="M 648.5,1436.5 C 651.226,1436.26 653.559,1437.1 655.5,1439C 660.367,1443.53 664.867,1448.37 669,1453.5C 669.667,1456.5 669.667,1459.5 669,1462.5C 663.811,1469.27 656.978,1471.44 648.5,1469C 647.333,1467.83 646.167,1466.67 645,1465.5C 644.373,1461.22 644.873,1457.05 646.5,1453C 645.606,1451.6 644.939,1450.1 644.5,1448.5C 645.844,1444.48 647.178,1440.48 648.5,1436.5 Z"/></g>
<g><path style="opacity:0.895" fill="#eff8fe" d="M 182.5,1456.5 C 185.394,1456.04 187.894,1456.71 190,1458.5C 191.903,1470.76 194.07,1482.92 196.5,1495C 194.341,1499.09 191.008,1501.75 186.5,1503C 174.548,1506.52 162.382,1509.02 150,1510.5C 143.647,1508.48 139.647,1504.14 138,1497.5C 135.206,1489.66 133.039,1481.66 131.5,1473.5C 135.147,1473.62 137.981,1475.29 140,1478.5C 143.961,1485.59 147.794,1492.75 151.5,1500C 174.909,1501.93 185.409,1491.43 183,1468.5C 182.501,1464.51 182.334,1460.51 182.5,1456.5 Z"/></g>
<g><path style="opacity:0.88" fill="#eff8fe" d="M 234.5,1470.5 C 235.995,1470.41 236.995,1471.08 237.5,1472.5C 231.065,1479.56 229.399,1487.56 232.5,1496.5C 229.314,1497.34 226.147,1498.34 223,1499.5C 214.044,1494.38 208.878,1486.71 207.5,1476.5C 212.795,1477.61 218.128,1478.11 223.5,1478C 227.233,1475.48 230.899,1472.98 234.5,1470.5 Z"/></g>
</svg>
