<?xml version="1.0" encoding="utf-8"?>
<!-- Uploaded to: SVG Repo, www.svgrepo.com, Generator: SVG Repo Mixer Tools -->
<!DOCTYPE svg PUBLIC "-//W3C//DTD SVG 1.1//EN" "http://www.w3.org/Graphics/SVG/1.1/DTD/svg11.dtd">
<svg fill="#000000" width="800px" height="800px" viewBox="0 0 1000 1000" version="1.1" xmlns="http://www.w3.org/2000/svg" xmlns:xlink="http://www.w3.org/1999/xlink"  enable-background="new 0 0 1000 1000" xml:space="preserve">

<g>
<g transform="translate(0.000000,511.000000) scale(0.100000,-0.100000)">
<path d="M3126.9,4532.6c-79.8-84.2-146.7-237.4-146.7-343.1c0-116.5,105.7-278.4,226.6-349.6c120.8-69.1,287-56.1,524.4,38.8c177,71.2,181.3,71.2,254.7,34.5c56.1-25.9,105.7-32.4,177-21.6c88.5,10.8,155.4,2.2,304.3-36.7c19.4-6.5,38.8,17.3,51.8,62.6c30.2,97.1-10.8,222.3-105.7,328c-192.1,211.5-513.6,248.2-768.3,82c-220.1-140.3-369-90.6-401.4,131.6c-8.6,64.7-25.9,120.8-36.7,125.2C3193.8,4588.7,3157.1,4565,3126.9,4532.6z"/>
<path d="M4016,3714.7c-246-105.7-360.4-403.5-263.3-688.4c30.2-84.2,36.7-140.3,23.7-164c-23.7-45.3-338.8-306.4-433.8-362.5c-38.8-21.6-202.9-172.6-362.5-334.5c-159.7-161.9-295.7-293.5-302.1-293.5c-6.5,0-220.1,144.6-474.8,323.7c-254.6,177-481.2,323.7-502.8,323.7c-21.6,0-69.1-28-103.6-62.6c-62.6-62.6-75.5-114.4-49.6-185.6c8.6-19.4,218-172.6,468.3-338.8l451-302.1L2358.6,1520c-131.6-136-155.4-181.3-155.4-293.5c0-118.7,54-172.6,334.5-332.3l237.4-136l-6.5-235.2c-8.6-295.7,21.6-410,123-479.1c97.1-64.7,457.5-179.1,833-265.4c166.2-36.7,304.3-69.1,306.4-71.2c6.5-8.6,135.9-919.3,135.9-966.8c0-36.7-28-71.2-103.6-120.9c-155.4-103.6-187.8-107.9-192.1-19.4c-6.5,123-148.9,351.7-172.6,280.5c-19.4-56.1-164-282.7-218-341c-73.4-77.7-239.5-185.6-287-185.6c-36.7,0-62.6,41-62.6,97.1c0,17.3-21.6,86.3-47.5,155.4l-45.3,125.2l-30.2-86.3c-53.9-155.4-215.8-282.7-461.8-358.2c-73.4-23.8-140.3-41-148.9-41c-10.8,0,4.3,53.9,34.5,120.9c159.7,362.5,153.2,664.7-23.7,930.1c-144.6,220.1-187.8,431.6-133.8,686.2c17.3,84.2,30.2,153.2,25.9,157.5c-12.9,13-148.9-64.7-284.9-159.7c-515.8-364.7-673.3-953.8-435.9-1627.2c34.5-101.4,69.1-202.8,75.5-226.6c8.6-28.1-73.4-198.5-239.6-507.1c-140.3-254.6-267.6-494.2-287-530.9l-32.4-69.1l319.4-524.4l319.4-526.6l-12.9-166.2l-10.8-168.3h321.6c177,0,321.5,6.5,321.5,12.9c0,6.5-47.5,92.8-105.7,192.1c-82,140.3-541.7,1109.2-541.7,1141.6c0,4.3,54,25.9,123,47.5c252.5,79.8,576.2,343.1,811.4,660.4l118.7,159.7l599.9,144.6c874,211.5,1089.8,250.3,1586.2,287l185.6,12.9l366.9-707.8c308.6-600,390.6-779.1,526.6-1152.4c131.6-366.9,159.7-472.6,170.5-615l10.8-172.6l319.4-6.5c174.8-2.2,317.2,0,317.2,6.5c0,6.5-49.6,86.3-110,174.8c-86.3,129.5-140.3,254.7-269.8,619.4c-123,349.6-548.2,1752.3-593.5,1957.3c-4.3,17.3,41,77.7,101.4,136l112.2,101.4l360.4-43.2c198.5-23.7,364.7-41,366.9-38.8c2.1,4.3-813.6,554.6-1814.9,1225.8c-1761,1180.4-1821.4,1219.3-1912,1215c-107.9-6.5-267.6,45.3-284.9,92.8c-32.4,86.3,73.4,304.3,235.2,479.1c189.9,205,308.6,224.4,384.1,62.6c73.4-153.2,38.8-358.2-82-489.9l-49.6-54l746.7-500.7c412.2-274.1,1871-1249.5,3241.4-2164.5c1370.3-917.2,2514.1-1672.5,2540-1676.8c56.1-12.9,110.1,66.9,73.4,110.1c-12.9,15.1-563.2,394.9-1221.4,845.9L7468.8-1484l-66.9,205c-38.9,112.2-71.2,209.3-75.5,213.7c-4.3,4.3-198.5,64.7-431.6,133.8c-233.1,69-427.3,129.5-433.8,136c-6.5,6.5,47.5,144.6,120.9,304.3c71.2,161.8,131.6,302.1,131.6,310.8c0,8.6-75.5,23.7-166.2,30.2C6064-111.4,5522.3,125.9,5047.5,507.9l-144.6,116.5l-215.8-6.5l-213.6-6.5l-164,114.4c-125.2,86.3-164,125.2-164,164c0,28.1,101.4,254.6,224.4,502.8l224.4,451L4380.7,2148c-148.9,211.5-213.6,323.7-213.6,364.7v62.6l179.1-2.2c164,0,189.9,6.5,282.7,64.7c56.1,36.7,120.9,95,144.6,131.6l41,64.7l-202.9,181.3c-112.2,101.4-200.7,187.7-196.4,196.4c6.5,6.5,97.1,19.4,207.2,25.9c107.9,6.5,200.7,17.3,207.2,23.7c28,25.9-92.8,215.8-198.5,312.9C4449.8,3738.5,4201.6,3794.6,4016,3714.7z"/>
<path d="M7134.3,2344.4c-153.2-23.7-358.2-88.5-548.2-174.8c-442.4-196.4-1038-733.7-1381.1-1238.7c-47.5-73.4-88.5-144.6-88.5-157.5c0-30.2,304.3-256.8,502.8-373.3c328-189.9,751-319.4,1057.4-319.4h146.7l41,99.3c56.1,127.3,56.1,129.5-23.7,220.1c-183.4,209.3-267.6,608.6-129.5,608.6c56.1,0,79.8-38.8,97.1-151.1c28-194.2,133.8-356.1,345.3-528.7C7307,203.6,7382.5,74.1,7382.5-61.8c0-97.1,8.6-120.9,49.6-148.9c58.3-38.8,233.1-64.7,287-45.3c32.4,12.9,28.1,21.6-30.2,56.1c-105.8,64.7-155.4,161.8-151.1,302.1c4.3,181.3-97.1,451-250.3,666.8c-60.4,84.2-66.9,107.9-66.9,248.2c2.1,133.8,12.9,179.1,84.2,325.9c144.6,306.4,133.8,300,492,343.1c168.3,21.6,315.1,43.2,325.8,49.6c8.6,4.3,64.7,73.4,123,151.1l107.9,142.4l-58.3,41c-125.2,84.2-353.9,189.9-505,233.1C7604.8,2353,7313.5,2372.4,7134.3,2344.4z"/>
<path d="M485.4,1630.1C854.5,1258.9,848,928.7,466,585.6C228.6,371.9,148.8,233.8,107.8-38.1c-34.5-241.7,47.5-507.1,211.5-671.1c166.2-166.2,524.4-267.6,813.6-230.9l127.3,17.3l30.2,148.9c17.3,82,53.9,196.4,84.2,252.5l51.8,103.6l-131.6,58.3c-157.5,71.2-235.2,155.4-235.2,259c0,92.8,38.8,172.6,170.5,343.1c53.9,71.2,127.3,192.1,164,269.8c51.8,118.7,62.6,168.3,62.6,312.9c0,246-58.3,384.1-243.9,571.9C1053,1558.9,813.5,1690.5,561,1750.9C317.1,1811.4,312.8,1802.7,485.4,1630.1z"/>
<path d="M7773.1,1515.7c-116.5-17.3-209.3-41-222.3-56.1C7488.3,1369,7401.9,1151,7389,1056c-10.8-103.6-6.5-120.9,77.7-261.1c148.9-243.9,222.3-444.6,237.4-636.6c10.8-153.2,19.4-174.8,71.2-213.6c47.5-36.7,69.1-38.8,110-21.6c69.1,32.4,86.3,153.2,69.1,444.5l-15.1,220.1l99.3,189.9c88.5,166.2,99.3,205,99.3,325.9v136l535.2,103.6c293.5,56.1,546,112.2,561.1,125.2c13,10.8,25.9,34.5,25.9,49.6c0,25.9-110,30.2-640.9,28C8232.8,1543.8,7894,1530.8,7773.1,1515.7z M7833.6,1146.7c53.9-69.1,60.4-207.2,10.8-254.6c-17.3-19.4-41-34.5-47.5-34.5c-45.3,0-114.4,75.5-136,151.1c-21.6,71.2-19.4,92.8,10.8,140.3C7717,1217.9,7777.4,1217.9,7833.6,1146.7z"/>
<path d="M7186.1-1874.6c73.4-138.1,131.6-256.8,131.6-265.4c0-8.6-66.9-45.3-151.1-77.7c-82-32.4-151.1-66.9-151.1-75.5c0-23.7,202.9-284.9,267.6-345.3c45.3-41,66.9-47.5,94.9-30.2c47.5,28.1,250.4,360.4,284.9,466.1c49.6,142.4,25.9,172.6-291.3,384.1c-159.7,105.8-295.7,194.2-304.3,194.2C7061-1624.2,7114.9-1736.5,7186.1-1874.6z"/>
<path d="M3357.8-2235l-410-110l-36.7-142.5c-32.4-135.9-144.6-386.3-265.4-593.5l-56.1-92.8l520.1-457.5c284.9-252.5,517.9-470.4,517.9-485.6c0-15.1-15.1-69.1-32.4-118.7c-17.3-49.6-32.4-99.3-32.4-110.1s127.3-19.4,280.5-19.4c155.4,0,280.5,6.5,280.5,15.1c0,8.6-21.6,77.7-45.3,157.5c-45.3,136-69.1,168.3-485.6,617.2c-431.6,464-438.1,472.6-390.6,502.8c25.9,17.3,120.8,105.7,209.3,194.2c116.5,116.5,189.9,213.6,252.5,336.6c69.1,135.9,157.5,366.9,157.5,414.3C3821.8-2111.9,3752.7-2129.2,3357.8-2235z"/>
</g>
</g>
</svg>